<?xml version="1.0" encoding="utf-8"?>
<!-- Generator: Adobe Illustrator 16.0.0, SVG Export Plug-In . SVG Version: 6.00 Build 0)  -->
<!DOCTYPE svg PUBLIC "-//W3C//DTD SVG 1.1//EN" "http://www.w3.org/Graphics/SVG/1.1/DTD/svg11.dtd">
<svg version="1.1" id="Layer_1" xmlns="http://www.w3.org/2000/svg" xmlns:xlink="http://www.w3.org/1999/xlink" x="0px" y="0px"
	 width="72px" height="72.706px" viewBox="0 0 72 72.706" style="enable-background:new 0 0 72 72.706;" xml:space="preserve">
<style type="text/css">
<![CDATA[
	.st0{fill-rule:evenodd;clip-rule:evenodd;}
	.st1{fill-rule:evenodd;clip-rule:evenodd;fill:#FFFFFF;}
]]>
</style>
<g>
	<path class="st0" d="M0.036,72.741c0-24.235,0-48.471,0-72.706c24,0,48,0,71.999,0c0,24.235,0,48.471,0,72.706
		c-0.064,0.003-0.129,0.008-0.193,0.008c-23.87,0.001-47.741,0.001-71.611,0C0.166,72.749,0.101,72.744,0.036,72.741z
		 M63.031,68.369c0-0.982-0.001-1.966,0-2.948c0-0.984,0.001-1.969,0.001-2.953c0.001-0.984,0.001-1.969,0.002-2.953
		c0.001-0.983,0.001-1.968,0.002-2.952c0-0.984,0.001-1.969,0.001-2.953c0.001-0.979,0.001-1.956,0.002-2.935
		c0-0.984,0.001-1.969,0.001-2.953s0.001-1.968,0.001-2.952c0.001-0.984,0.001-1.969,0.001-2.952
		c0.001-0.984,0.001-1.969,0.002-2.953c0-0.984,0-1.969,0.002-2.953c0.002-0.98-0.004-1.96,0.027-2.949
		c0.653,0.535,1.287,1.079,1.92,1.622c0.638,0.547,1.27,1.101,1.923,1.648c1.202-1.32,2.387-2.622,3.578-3.932
		c-0.061-0.054-0.103-0.094-0.146-0.131c-0.375-0.315-0.753-0.625-1.124-0.944c-2.225-1.914-4.451-3.826-6.67-5.746
		c-4.373-3.782-8.734-7.576-13.113-11.351c-3.53-3.044-7.075-6.07-10.621-9.095c-0.807-0.688-1.644-1.341-2.468-2.009
		c-0.067-0.055-0.143-0.1-0.223-0.156c-0.106,0.079-0.207,0.15-0.304,0.225c-1.59,1.221-3.132,2.499-4.654,3.803
		c-2.819,2.416-5.621,4.852-8.486,7.212c-0.805,0.663-1.614,1.322-2.421,1.982c-0.057,0.046-0.118,0.086-0.207,0.15
		c0.025-1.815,0.05-3.591,0.075-5.373c-3.031,0-6.039,0-9.062,0c0,0.087,0,0.163,0,0.238c-0.001,4.291-0.004,8.581,0,12.872
		c0,0.177-0.056,0.291-0.187,0.404c-0.836,0.717-1.665,1.444-2.498,2.165c-2.161,1.872-4.322,3.742-6.482,5.613
		c-0.048,0.042-0.095,0.086-0.154,0.14c1.192,1.318,2.377,2.625,3.579,3.926c0.072-0.059,0.128-0.102,0.181-0.147
		c0.291-0.249,0.582-0.499,0.872-0.748c0.832-0.715,1.662-1.43,2.494-2.144c0.045-0.039,0.082-0.099,0.153-0.094
		c0.006,0.015,0.009,0.02,0.01,0.025c0.002,0.006,0.003,0.012,0.003,0.017c0.001,0.012,0.002,0.024,0.002,0.036
		c0.002,11.711,0.004,23.421,0.007,35.132c0,0.018,0,0.035,0,0.053c0,0.012,0,0.023,0.001,0.035c0,0.006,0.001,0.012,0.002,0.018
		c0.001,0.006,0.001,0.013,0.003,0.018s0.006,0.01,0.01,0.014c0.004,0.005,0.008,0.008,0.026,0.024
		C27.053,68.435,45.027,68.401,63.031,68.369z"/>
	<path class="st1" d="M0.036,72.741c0.065,0.003,0.129,0.008,0.194,0.008c23.871,0.001,47.741,0.001,71.611,0
		c0.064,0,0.129-0.005,0.193-0.008c-0.006,0.012-0.011,0.033-0.018,0.034c-0.047,0.003-0.094,0.001-0.142,0.001
		c-23.894,0-47.787,0-71.68-0.002C0.144,72.774,0.076,72.815,0.036,72.741z"/>
	<path class="st1" d="M63.031,68.369c-18.004,0.032-35.978,0.065-53.939,0.098c-0.018-0.017-0.022-0.02-0.026-0.024
		c-0.004-0.004-0.008-0.009-0.01-0.014s-0.002-0.012-0.003-0.018c0-0.006-0.002-0.012-0.002-0.018c0-0.012-0.001-0.023-0.001-0.035
		c0-0.018,0-0.035,0-0.053C9.047,56.595,9.044,44.885,9.042,33.174c0-0.012-0.001-0.023-0.002-0.036
		c0-0.005-0.001-0.011-0.003-0.017c-0.001-0.005-0.004-0.011-0.01-0.025c-0.071-0.005-0.108,0.056-0.153,0.094
		c-0.832,0.714-1.662,1.429-2.494,2.144c-0.29,0.25-0.581,0.499-0.872,0.748c-0.053,0.045-0.109,0.088-0.181,0.147
		c-1.201-1.301-2.387-2.608-3.579-3.926c0.06-0.054,0.106-0.098,0.154-0.14c2.161-1.871,4.322-3.741,6.482-5.613
		c0.833-0.721,1.662-1.448,2.498-2.165c0.131-0.113,0.187-0.228,0.187-0.404c-0.004-4.291-0.001-8.581,0-12.872
		c0-0.076,0-0.151,0-0.238c3.023,0,6.03,0,9.062,0c-0.024,1.782-0.049,3.558-0.075,5.373c0.088-0.064,0.15-0.104,0.207-0.15
		c0.807-0.66,1.616-1.319,2.421-1.982c2.866-2.36,5.667-4.796,8.486-7.212c1.521-1.304,3.064-2.583,4.654-3.803
		c0.097-0.075,0.197-0.146,0.304-0.225c0.08,0.056,0.155,0.101,0.223,0.156c0.824,0.668,1.661,1.321,2.468,2.009
		c3.546,3.025,7.091,6.051,10.621,9.095c4.379,3.775,8.74,7.569,13.113,11.351c2.219,1.919,4.445,3.832,6.67,5.746
		c0.371,0.319,0.749,0.629,1.124,0.944c0.044,0.037,0.086,0.077,0.146,0.131c-1.191,1.31-2.376,2.611-3.578,3.932
		c-0.653-0.548-1.285-1.102-1.923-1.648c-0.633-0.543-1.267-1.087-1.92-1.622c-0.031,0.988-0.025,1.968-0.027,2.949
		c-0.002,0.984-0.002,1.968-0.002,2.953c-0.001,0.984-0.001,1.969-0.002,2.953c0,0.983,0,1.968-0.001,2.952
		c0,0.984-0.001,1.968-0.001,2.952s-0.001,1.969-0.001,2.953c-0.001,0.979-0.001,1.956-0.002,2.935c0,0.984-0.001,1.969-0.001,2.953
		c-0.001,0.984-0.001,1.969-0.002,2.952c-0.001,0.984-0.001,1.969-0.002,2.953c0,0.984-0.001,1.969-0.001,2.953
		C63.03,66.403,63.031,67.387,63.031,68.369z M34.762,31.642c-0.026-0.071-0.045-0.114-0.058-0.158
		c-0.083-0.28-0.267-0.473-0.536-0.57c-0.158-0.058-0.329-0.098-0.497-0.109c-0.568-0.038-1.079,0.148-1.555,0.439
		c-0.396,0.242-0.737,0.549-1.036,0.902c-1.04,1.231-1.574,2.677-1.801,4.253c-0.065,0.456-0.078,0.916-0.076,1.375
		c0,0.083-0.007,0.158-0.064,0.229c-0.34,0.423-0.694,0.834-1.102,1.194c-0.171,0.151-0.354,0.296-0.548,0.414
		c-0.312,0.19-0.534,0.113-0.597-0.265c-0.031-0.19-0.054-0.387-0.045-0.579c0.039-0.848,0.089-1.694,0.141-2.541
		c0.003-0.058,0.039-0.123,0.078-0.169c0.082-0.1,0.179-0.188,0.265-0.285c0.446-0.508,0.755-1.079,0.8-1.77
		c0.041-0.645-0.266-1.161-0.787-1.4c-0.036-0.017-0.069-0.041-0.104-0.062c0.002-0.037,0-0.066,0.005-0.095
		c0.079-0.506,0.151-1.014,0.241-1.518c0.09-0.51,0.2-1.016,0.384-1.503c0.235-0.624,0.665-1.03,1.308-1.208
		c0.193-0.053,0.387-0.101,0.582-0.146c0.084-0.02,0.152-0.048,0.199-0.129c0.125-0.217,0.219-0.444,0.245-0.694
		c0.083-0.79-0.356-1.52-1.094-1.819c-0.431-0.174-0.878-0.206-1.337-0.146c-0.664,0.085-1.247,0.335-1.718,0.822
		c-0.29,0.299-0.512,0.645-0.696,1.017c-0.292,0.589-0.486,1.212-0.64,1.849c-0.371,1.533-0.539,3.096-0.673,4.663
		c-0.032,0.37-0.065,0.74-0.083,1.11c-0.007,0.147-0.07,0.221-0.202,0.268c-0.57,0.205-1.139,0.414-1.708,0.62
		c-0.024,0.009-0.053,0.005-0.094,0.008c0.006-0.078,0.008-0.142,0.017-0.205c0.119-0.829,0.184-1.662,0.228-2.498
		c0.027-0.518,0.037-1.036,0.053-1.554c0.034-1.139,0.006-2.274-0.154-3.403c-0.078-0.549-0.192-1.09-0.387-1.611
		c-0.134-0.361-0.305-0.703-0.569-0.989c-0.282-0.307-0.627-0.475-1.05-0.457c-0.609,0.026-1.171,0.205-1.663,0.569
		c-0.728,0.539-0.975,1.27-0.832,2.149c0.059,0.36,0.219,0.682,0.388,1c0.16,0.302,0.324,0.602,0.48,0.905
		c0.148,0.287,0.224,0.596,0.237,0.917c0.026,0.636,0.06,1.272,0.061,1.908c0.003,1.302-0.027,2.604-0.126,3.904
		c-0.019,0.244-0.016,0.244-0.256,0.286c-1.084,0.19-2.169,0.378-3.253,0.573c-0.73,0.131-1.457,0.281-2.158,0.53
		c-0.535,0.189-1.048,0.422-1.503,0.77c-0.572,0.438-0.941,1.004-1.044,1.723c-0.078,0.541-0.047,1.08,0.079,1.614
		c0.508,2.156,2.481,3.542,4.743,3.198c1.053-0.159,1.976-0.604,2.792-1.279c0.809-0.67,1.44-1.487,1.97-2.388
		c0.583-0.99,1.019-2.044,1.352-3.141c0.045-0.147,0.119-0.216,0.268-0.257c0.665-0.179,1.325-0.373,1.987-0.561
		c0.043-0.013,0.087-0.019,0.15-0.032c-0.017,0.239-0.029,0.462-0.048,0.684c-0.085,1.034-0.148,2.069-0.122,3.106
		c0.009,0.36,0.052,0.718,0.186,1.057c0.208,0.525,0.596,0.802,1.159,0.836c0.333,0.02,0.658-0.028,0.977-0.122
		c0.596-0.174,1.125-0.479,1.624-0.84c0.717-0.515,1.347-1.124,1.925-1.789c0.058-0.065,0.118-0.129,0.19-0.207
		c0.04,0.057,0.071,0.098,0.098,0.142c0.562,0.924,1.398,1.34,2.462,1.295c0.998-0.043,1.861-0.424,2.59-1.109
		c0.437-0.412,0.794-0.885,1.11-1.392c0.04-0.063,0.083-0.124,0.122-0.181c0.159,0.039,0.3,0.09,0.444,0.107
		c0.462,0.057,0.901-0.044,1.324-0.229c0.078-0.034,0.158-0.066,0.254-0.106c0.025,0.08,0.045,0.14,0.063,0.2
		c0.14,0.433,0.354,0.822,0.679,1.145c0.505,0.502,1.106,0.721,1.818,0.61c0.198-0.03,0.392-0.075,0.555-0.209
		c0.093-0.076,0.143-0.16,0.132-0.288c-0.018-0.217-0.026-0.435-0.031-0.652c-0.026-1.239,0.046-2.474,0.139-3.708
		c0.004-0.057,0.021-0.117,0.05-0.166c0.234-0.41,0.485-0.809,0.797-1.166c0.131-0.149,0.28-0.286,0.437-0.41
		c0.067-0.054,0.17-0.08,0.26-0.087c0.159-0.014,0.246,0.062,0.258,0.223c0.008,0.122,0.002,0.25-0.023,0.369
		c-0.099,0.454-0.211,0.905-0.313,1.359c-0.203,0.892-0.36,1.79-0.337,2.71c0.008,0.298,0.063,0.585,0.175,0.86
		c0.18,0.438,0.488,0.745,0.943,0.892c0.508,0.165,1.021,0.155,1.534,0.034c0.177-0.042,0.322-0.139,0.448-0.271
		c0.048-0.051,0.064-0.103,0.063-0.174c-0.029-0.86-0.043-1.72,0.013-2.58c0.04-0.611,0.077-1.223,0.119-1.833
		c0.003-0.057,0.022-0.117,0.051-0.166c0.3-0.517,0.638-1.006,1.073-1.419c0.14-0.133,0.293-0.259,0.458-0.357
		c0.261-0.155,0.479-0.017,0.459,0.285c-0.012,0.169-0.049,0.338-0.088,0.503c-0.184,0.773-0.381,1.543-0.557,2.318
		c-0.129,0.569-0.221,1.146-0.194,1.733c0.017,0.373,0.078,0.738,0.236,1.081c0.161,0.348,0.426,0.58,0.799,0.665
		c0.557,0.126,1.1,0.078,1.622-0.162c0.415-0.191,0.79-0.445,1.146-0.729c0.555-0.442,1.053-0.943,1.521-1.476
		c0.056-0.064,0.117-0.124,0.191-0.201c0.061,0.104,0.106,0.184,0.154,0.264c0.386,0.637,0.938,1.045,1.664,1.216
		c0.538,0.126,1.077,0.109,1.614,0.01c0.663-0.124,1.268-0.4,1.84-0.747c1.103-0.667,2.025-1.535,2.813-2.55
		c0.362-0.467,0.683-0.96,0.913-1.507c0.129-0.305,0.221-0.618,0.234-0.955c0.015-0.36-0.232-0.634-0.556-0.725
		c-0.298-0.083-0.322-0.072-0.471,0.196c-0.023,0.041-0.046,0.083-0.069,0.123c-0.599,1.025-1.349,1.917-2.322,2.607
		c-0.499,0.354-1.034,0.634-1.638,0.763c-0.16,0.034-0.326,0.055-0.49,0.058c-0.455,0.01-0.755-0.182-0.909-0.613
		c-0.086-0.242-0.124-0.501-0.172-0.755c-0.026-0.135-0.015-0.139,0.12-0.191c0.208-0.081,0.419-0.157,0.624-0.244
		c0.638-0.271,1.24-0.599,1.771-1.051c1.265-1.076,1.482-2.562,1.061-3.894c-0.219-0.69-0.702-1.117-1.42-1.257
		c-0.831-0.161-1.603-0.021-2.307,0.464c-0.525,0.362-0.963,0.812-1.339,1.324c-0.846,1.153-1.366,2.44-1.572,3.854
		c-0.071,0.49-0.108,0.984-0.051,1.479c0.017,0.145-0.012,0.265-0.114,0.372c-0.07,0.072-0.124,0.158-0.192,0.231
		c-0.241,0.259-0.477,0.523-0.73,0.768c-0.134,0.129-0.292,0.242-0.458,0.326c-0.264,0.135-0.475,0.002-0.484-0.292
		c-0.004-0.146,0.007-0.294,0.028-0.439c0.024-0.168,0.06-0.337,0.106-0.5c0.265-0.922,0.531-1.844,0.802-2.764
		c0.184-0.623,0.337-1.251,0.358-1.904c0.013-0.406-0.034-0.801-0.232-1.164c-0.229-0.42-0.577-0.68-1.056-0.743
		c-0.322-0.043-0.635,0.01-0.931,0.146c-0.286,0.132-0.535,0.318-0.766,0.532c-0.426,0.396-0.779,0.851-1.105,1.329
		c-0.42,0.614-0.788,1.258-1.142,1.911c-0.031,0.057-0.066,0.112-0.1,0.168c-0.011-0.005-0.022-0.011-0.034-0.017
		c0.014-0.05,0.025-0.1,0.04-0.148c0.055-0.187,0.117-0.371,0.165-0.559c0.141-0.544,0.16-1.095,0.05-1.646
		c-0.105-0.529-0.486-0.893-1.015-0.973c-0.223-0.034-0.446-0.012-0.666,0.042c-0.442,0.109-0.808,0.348-1.133,0.657
		c-0.457,0.435-0.813,0.948-1.117,1.496c-0.266,0.479-0.504,0.972-0.755,1.459c-0.028,0.056-0.06,0.11-0.09,0.165
		c-0.014-0.078,0.004-0.139,0.02-0.201c0.083-0.319,0.172-0.637,0.246-0.958c0.114-0.492,0.146-0.99,0.095-1.493
		c-0.051-0.493-0.339-0.752-0.829-0.756c-0.382-0.002-0.734,0.11-1.061,0.294c-0.82,0.464-1.43,1.127-1.814,1.989
		c-0.151,0.338-0.228,0.694-0.186,1.067c0.046,0.417,0.124,0.827,0.305,1.21c0.048,0.103,0.05,0.198,0.025,0.307
		c-0.059,0.252-0.125,0.506-0.147,0.762c-0.023,0.256-0.148,0.412-0.365,0.514c-0.101,0.048-0.203,0.095-0.309,0.129
		c-0.171,0.055-0.347,0.068-0.522,0.017c-0.166-0.048-0.188-0.085-0.148-0.253c0.062-0.27,0.129-0.538,0.188-0.809
		c0.171-0.789,0.214-1.587,0.122-2.389c-0.05-0.43-0.172-0.842-0.388-1.222c-0.126-0.222-0.277-0.424-0.486-0.577
		c-0.4-0.291-0.951-0.261-1.32,0.069C34.863,31.558,34.822,31.591,34.762,31.642z M51.872,46.511
		c-0.008-0.002-0.016-0.004-0.024-0.005c0.04-0.195,0.086-0.39,0.117-0.586c0.036-0.228,0.051-0.457-0.008-0.684
		c-0.054-0.205-0.169-0.295-0.379-0.306c-0.175-0.009-0.339,0.032-0.496,0.105c-0.334,0.157-0.592,0.402-0.813,0.692
		c-0.363,0.477-0.405,0.988-0.18,1.532c0.013,0.032,0.046,0.066,0.041,0.096c-0.033,0.226-0.046,0.46-0.12,0.672
		c-0.063,0.178-0.429,0.232-0.621,0.122c0.008-0.042,0.016-0.088,0.023-0.133c0.051-0.272,0.116-0.542,0.147-0.816
		c0.046-0.406,0.03-0.813-0.118-1.202c-0.069-0.184-0.165-0.352-0.317-0.481c-0.173-0.148-0.369-0.177-0.577-0.093
		c-0.08,0.032-0.149,0.091-0.228,0.14c-0.061-0.244-0.229-0.37-0.465-0.399c-0.132-0.016-0.271-0.008-0.403,0.016
		c-0.315,0.059-0.577,0.229-0.812,0.442c-0.282,0.257-0.499,0.564-0.673,0.901c-0.359,0.694-0.518,1.436-0.521,2.215
		c0,0.072-0.006,0.16-0.047,0.214c-0.202,0.269-0.43,0.517-0.696,0.724c-0.047,0.036-0.097,0.068-0.15,0.093
		c-0.126,0.057-0.208,0.022-0.24-0.11c-0.025-0.102-0.04-0.21-0.037-0.314c0.015-0.418,0.042-0.835,0.057-1.253
		c0.005-0.108,0.043-0.185,0.119-0.261c0.215-0.217,0.376-0.471,0.442-0.771c0.09-0.411-0.004-0.78-0.413-0.965
		c-0.009-0.004-0.013-0.019-0.039-0.058c0.079-0.42,0.16-0.864,0.248-1.309c0.107-0.54,0.431-0.863,0.979-0.948
		c0.128-0.02,0.192-0.09,0.24-0.201c0.222-0.519-0.084-1.122-0.659-1.244c-0.62-0.132-1.159,0.033-1.559,0.544
		c-0.122,0.155-0.216,0.337-0.299,0.518c-0.203,0.442-0.304,0.916-0.387,1.392c-0.138,0.79-0.21,1.588-0.253,2.388
		c-0.006,0.108-0.037,0.175-0.142,0.212c-0.255,0.092-0.507,0.189-0.761,0.282c-0.035,0.013-0.073,0.018-0.11,0.025
		c-0.005-0.024-0.011-0.036-0.01-0.048c0.015-0.141,0.03-0.28,0.044-0.421c0.1-1.011,0.137-2.023,0.052-3.035
		c-0.029-0.339-0.1-0.676-0.172-1.009c-0.057-0.266-0.161-0.518-0.332-0.734c-0.169-0.214-0.385-0.324-0.661-0.299
		c-0.313,0.028-0.6,0.127-0.846,0.323c-0.349,0.28-0.472,0.648-0.399,1.086c0.043,0.262,0.168,0.49,0.308,0.709
		c0.206,0.323,0.294,0.675,0.303,1.055c0.02,0.907,0.021,1.814-0.036,2.721c-0.002,0.04-0.012,0.079-0.019,0.119
		c-0.036,0.012-0.063,0.023-0.092,0.028c-0.411,0.074-0.824,0.141-1.233,0.224c-0.479,0.098-0.956,0.2-1.429,0.32
		c-0.32,0.082-0.62,0.224-0.891,0.419c-0.282,0.204-0.482,0.467-0.564,0.809c-0.081,0.334-0.052,0.668,0.029,0.997
		c0.216,0.878,0.921,1.514,1.815,1.633c0.616,0.082,1.18-0.081,1.704-0.396c0.458-0.274,0.819-0.651,1.127-1.082
		c0.442-0.621,0.741-1.311,0.969-2.033c0.018-0.056,0.037-0.109,0.053-0.153c0.402-0.114,0.789-0.225,1.191-0.339
		c-0.006,0.099-0.009,0.181-0.016,0.262c-0.048,0.582-0.083,1.164-0.051,1.748c0.01,0.179,0.053,0.362,0.115,0.53
		c0.093,0.249,0.297,0.376,0.561,0.392c0.122,0.007,0.248-0.002,0.368-0.023c0.344-0.061,0.642-0.227,0.926-0.421
		c0.386-0.266,0.721-0.588,1.029-0.939c0.04-0.045,0.083-0.089,0.13-0.139c0.032,0.046,0.053,0.074,0.072,0.104
		c0.279,0.412,0.671,0.614,1.167,0.611c0.537-0.004,1-0.197,1.396-0.556c0.233-0.212,0.42-0.461,0.586-0.727
		c0.027-0.044,0.059-0.084,0.087-0.125c0.359,0.135,0.683,0.034,0.991-0.1c0.087,0.169,0.155,0.34,0.257,0.489
		c0.28,0.415,0.712,0.584,1.181,0.481c0.217-0.047,0.295-0.137,0.279-0.35c-0.052-0.708-0.002-1.413,0.042-2.119
		c0.003-0.046,0.009-0.096,0.031-0.135c0.146-0.264,0.305-0.519,0.521-0.731c0.05-0.048,0.108-0.094,0.172-0.12
		c0.109-0.045,0.188,0.009,0.193,0.127c0.004,0.07-0.009,0.142-0.022,0.21c-0.09,0.45-0.191,0.897-0.271,1.35
		c-0.052,0.302-0.081,0.608-0.023,0.914c0.069,0.364,0.251,0.632,0.627,0.732c0.239,0.064,0.48,0.061,0.718,0.002
		c0.082-0.02,0.162-0.07,0.228-0.124c0.038-0.032,0.067-0.101,0.065-0.15c-0.036-0.731-0.003-1.461,0.056-2.189
		c0.004-0.052,0.003-0.111,0.027-0.154c0.188-0.329,0.399-0.64,0.703-0.876c0.036-0.028,0.079-0.054,0.123-0.067
		c0.106-0.033,0.177,0.013,0.182,0.123c0.003,0.07-0.006,0.143-0.021,0.21c-0.045,0.201-0.095,0.401-0.145,0.602
		c-0.106,0.435-0.209,0.87-0.249,1.317c-0.022,0.257,0.007,0.506,0.091,0.748c0.088,0.256,0.265,0.417,0.537,0.449
		c0.134,0.016,0.271,0.017,0.404,0.002c0.265-0.028,0.491-0.159,0.706-0.306c0.363-0.248,0.674-0.553,0.965-0.879
		c0.042-0.048,0.086-0.094,0.139-0.151c0.041,0.059,0.073,0.105,0.105,0.152c0.237,0.354,0.568,0.554,0.991,0.607
		c0.364,0.047,0.716-0.004,1.058-0.133c0.516-0.193,0.956-0.505,1.357-0.875c0.45-0.414,0.844-0.875,1.104-1.434
		c0.079-0.168,0.137-0.354,0.161-0.537c0.041-0.304-0.159-0.481-0.443-0.451c-0.219,0.308-0.413,0.61-0.637,0.889
		c-0.297,0.371-0.659,0.673-1.088,0.887c-0.203,0.1-0.414,0.17-0.64,0.191c-0.209,0.021-0.388-0.037-0.492-0.235
		c-0.087-0.163-0.124-0.34-0.128-0.527c0.124-0.051,0.238-0.095,0.352-0.144c0.399-0.169,0.776-0.375,1.079-0.691
		c0.535-0.559,0.633-1.217,0.399-1.933c-0.112-0.346-0.368-0.559-0.727-0.627c-0.429-0.082-0.831-0.013-1.197,0.238
		c-0.275,0.189-0.506,0.423-0.699,0.693c-0.591,0.828-0.891,1.745-0.837,2.77c0.004,0.074,0.023,0.15-0.039,0.217
		c-0.178,0.188-0.35,0.382-0.53,0.567c-0.052,0.053-0.122,0.094-0.191,0.122c-0.112,0.047-0.204-0.007-0.218-0.128
		c-0.01-0.08-0.007-0.166,0.011-0.245c0.055-0.247,0.113-0.494,0.18-0.737c0.126-0.46,0.268-0.916,0.385-1.378
		c0.072-0.285,0.108-0.578,0.059-0.875c-0.085-0.505-0.484-0.795-0.969-0.678c-0.139,0.034-0.276,0.106-0.393,0.19
		c-0.142,0.104-0.271,0.229-0.387,0.36c-0.351,0.395-0.611,0.851-0.865,1.31c-0.023,0.041-0.05,0.08-0.074,0.119
		c-0.013-0.053-0.006-0.092,0.006-0.131c0.085-0.286,0.111-0.576,0.063-0.873c-0.042-0.263-0.163-0.465-0.424-0.561
		c-0.148-0.055-0.301-0.047-0.453-0.014c-0.341,0.075-0.594,0.287-0.795,0.555c-0.18,0.239-0.335,0.497-0.491,0.754
		C52.028,46.182,51.955,46.349,51.872,46.511z M25.682,64.728c-0.095,0.008-0.165,0.015-0.235,0.02
		c-0.317,0.024-0.635,0.044-0.951,0.074c-0.218,0.021-0.43,0.071-0.625,0.175c-0.175,0.092-0.302,0.227-0.353,0.42
		c-0.176,0.668,0.294,1.335,0.985,1.354c0.352,0.009,0.658-0.108,0.934-0.317c0.248-0.188,0.443-0.424,0.601-0.688
		c0.097-0.162,0.18-0.331,0.264-0.5c0.028-0.058,0.059-0.095,0.127-0.104c0.167-0.023,0.333-0.053,0.517-0.083
		c-0.018,0.102-0.035,0.187-0.046,0.272c-0.033,0.263-0.082,0.525-0.091,0.788c-0.011,0.291,0.162,0.438,0.451,0.4
		c0.132-0.018,0.271-0.051,0.385-0.116c0.208-0.119,0.4-0.267,0.599-0.402c0.036-0.025,0.07-0.053,0.108-0.082
		c0.03,0.046,0.051,0.082,0.074,0.115c0.13,0.188,0.311,0.28,0.537,0.292c0.293,0.015,0.541-0.088,0.759-0.278
		c0.098-0.085,0.203-0.162,0.33-0.262c0.105,0,0.271,0,0.435,0c0.036,0.083,0.064,0.174,0.112,0.254
		c0.111,0.187,0.278,0.285,0.5,0.271c0.13-0.009,0.158-0.041,0.175-0.171c0.033-0.269,0.076-0.536,0.099-0.806
		c0.021-0.243,0.151-0.414,0.324-0.565c0.052-0.045,0.106-0.098,0.207-0.054c-0.007,0.056-0.009,0.118-0.026,0.177
		c-0.029,0.102-0.077,0.198-0.103,0.301c-0.056,0.222-0.128,0.443-0.148,0.67c-0.033,0.36,0.248,0.585,0.605,0.513
		c0.116-0.023,0.146-0.06,0.161-0.173c0.037-0.292,0.078-0.584,0.113-0.876c0.034-0.282,0.234-0.437,0.442-0.584
		c0.027-0.02,0.1-0.025,0.111-0.009c0.022,0.031,0.025,0.084,0.017,0.124c-0.014,0.069-0.043,0.135-0.066,0.201
		c-0.069,0.207-0.148,0.41-0.204,0.62c-0.034,0.129-0.051,0.269-0.041,0.401c0.018,0.235,0.147,0.338,0.385,0.351
		c0.141,0.008,0.273-0.025,0.388-0.098c0.174-0.109,0.338-0.233,0.506-0.353c0.037-0.025,0.071-0.055,0.106-0.083
		c0.293,0.416,0.594,0.536,1.05,0.394c0.189-0.059,0.363-0.163,0.543-0.25c0.057-0.027,0.108-0.065,0.168-0.103
		c0.008,0.028,0.016,0.044,0.017,0.06c0.02,0.285,0.208,0.364,0.429,0.364c0.178,0,0.337-0.056,0.485-0.144
		c0.16-0.096,0.313-0.205,0.47-0.309c0.008,0.005,0.021,0.009,0.026,0.018c0.182,0.36,0.492,0.444,0.862,0.399
		c0.257-0.031,0.481-0.147,0.698-0.282c0.049-0.03,0.098-0.061,0.154-0.095c0.017,0.022,0.027,0.036,0.037,0.05
		c0.197,0.292,0.483,0.42,0.824,0.442c0.694,0.047,1.161-0.486,1.021-1.164c-0.024-0.115-0.053-0.229-0.081-0.354
		c0.17-0.044,0.335-0.082,0.498-0.129c0.168-0.05,0.334-0.107,0.514-0.166c0.088,0.27,0.175,0.531,0.257,0.794
		c0.022,0.072,0.036,0.15,0.036,0.226c0.001,0.126-0.091,0.177-0.203,0.12c-0.101-0.051-0.141-0.142-0.148-0.245
		c-0.006-0.088,0.001-0.177,0.002-0.265c0.002-0.113-0.017-0.136-0.128-0.14c-0.174-0.007-0.307,0.071-0.407,0.207
		c-0.266,0.355-0.112,0.862,0.307,1.021c0.381,0.144,1.031,0.049,1.282-0.401c0.012-0.021,0.021-0.043,0.034-0.074
		c0.056,0.094,0.088,0.157,0.129,0.214c0.113,0.152,0.266,0.23,0.457,0.22c0.146-0.008,0.177-0.048,0.191-0.194
		c0.023-0.246,0.06-0.491,0.078-0.737c0.02-0.255,0.169-0.421,0.361-0.556c0.052-0.036,0.144-0.07,0.189-0.048
		c0.083,0.041,0.018,0.128-0.001,0.189c-0.066,0.219-0.152,0.434-0.209,0.655c-0.033,0.134-0.04,0.28-0.03,0.419
		c0.014,0.201,0.13,0.304,0.331,0.324c0.131,0.013,0.263,0.003,0.377-0.064c0.178-0.104,0.348-0.219,0.521-0.331
		c0.037-0.023,0.071-0.053,0.095-0.069c0.103,0.114,0.184,0.233,0.292,0.316c0.16,0.124,0.357,0.144,0.556,0.127
		c0.29-0.025,0.542-0.152,0.783-0.305c0.043-0.026,0.087-0.053,0.136-0.082c0.207,0.326,0.503,0.471,0.865,0.493
		c0.695,0.042,1.155-0.491,1.013-1.171c-0.024-0.114-0.052-0.228-0.077-0.34c0.341-0.1,0.671-0.195,1.015-0.295
		c0.094,0.295,0.188,0.586,0.276,0.878c0.014,0.044,0.016,0.094,0.014,0.14c-0.006,0.116-0.089,0.166-0.195,0.119
		c-0.103-0.046-0.148-0.135-0.157-0.239c-0.008-0.093,0.001-0.188,0.001-0.282c0.001-0.103-0.019-0.126-0.117-0.133
		c-0.181-0.011-0.319,0.07-0.423,0.213c-0.249,0.343-0.12,0.827,0.27,0.995c0.298,0.128,0.602,0.105,0.895-0.014
		c0.343-0.141,0.531-0.406,0.54-0.778c0.004-0.155-0.023-0.316-0.064-0.468c-0.047-0.176-0.124-0.343-0.187-0.515
		c-0.021-0.058-0.035-0.119-0.051-0.173c0.122-0.078,0.23-0.139,0.328-0.213c0.204-0.155,0.204-0.392,0.001-0.549
		c-0.138-0.106-0.299-0.139-0.469-0.109c-0.319,0.056-0.523,0.259-0.645,0.546c-0.039,0.092-0.092,0.147-0.179,0.177
		c-0.285,0.094-0.57,0.188-0.856,0.277c-0.035,0.012-0.078,0.002-0.133,0.002c-0.027-0.109-0.063-0.216-0.078-0.325
		c-0.02-0.146,0.028-0.199,0.176-0.195c0.104,0.003,0.207,0.027,0.312,0.043c0.216-0.27,0.12-0.607-0.201-0.674
		c-0.551-0.114-1.191,0.192-1.101,0.931c0.007,0.053,0.017,0.104,0.023,0.157c0.011,0.073,0.021,0.146,0.029,0.218
		c-0.188,0.05-0.367,0.087-0.54,0.144c-0.259,0.084-0.422,0.25-0.416,0.544c0,0.04-0.02,0.101-0.05,0.119
		c-0.182,0.114-0.377,0.194-0.599,0.179c-0.106-0.008-0.179-0.066-0.204-0.167c-0.019-0.076-0.017-0.158-0.021-0.206
		c0.237-0.108,0.456-0.184,0.65-0.301c0.305-0.184,0.428-0.477,0.407-0.827c-0.018-0.316-0.204-0.492-0.517-0.518
		c-0.27-0.022-0.483,0.092-0.67,0.264c-0.397,0.366-0.621,0.822-0.677,1.36c-0.006,0.051-0.009,0.116-0.041,0.146
		c-0.089,0.084-0.189,0.157-0.291,0.226c-0.028,0.02-0.095,0.025-0.113,0.007c-0.026-0.026-0.044-0.085-0.035-0.122
		c0.028-0.114,0.065-0.227,0.107-0.336c0.088-0.231,0.191-0.457,0.269-0.691c0.043-0.131,0.063-0.276,0.061-0.415
		c-0.005-0.195-0.151-0.319-0.347-0.331c-0.15-0.009-0.276,0.052-0.395,0.132c-0.202,0.139-0.356,0.324-0.498,0.521
		c-0.031,0.044-0.065,0.085-0.098,0.128c0.003-0.099,0.034-0.181,0.05-0.266c0.024-0.133,0.051-0.267,0.055-0.401
		c0.004-0.138-0.055-0.188-0.193-0.199c-0.117-0.011-0.221,0.029-0.316,0.09c-0.198,0.126-0.349,0.297-0.471,0.496
		c-0.113,0.185-0.149,0.383-0.092,0.593c0.028,0.104,0.018,0.196-0.051,0.307c-0.089-0.267-0.205-0.507-0.274-0.76
		c0.12-0.076,0.225-0.133,0.318-0.202c0.23-0.171,0.217-0.439-0.03-0.591c-0.13-0.079-0.274-0.105-0.425-0.078
		c-0.313,0.056-0.516,0.25-0.637,0.53c-0.044,0.102-0.102,0.166-0.204,0.199c-0.279,0.09-0.559,0.183-0.839,0.271
		c-0.036,0.012-0.078,0.002-0.133,0.002c-0.027-0.11-0.063-0.216-0.078-0.325c-0.02-0.146,0.029-0.199,0.176-0.195
		c0.104,0.003,0.208,0.027,0.312,0.043c0.221-0.276,0.115-0.616-0.219-0.679c-0.526-0.099-1.188,0.182-1.08,0.972
		c0.01,0.075,0.024,0.15,0.035,0.227c0.006,0.038,0.01,0.076,0.014,0.113c-0.188,0.049-0.366,0.086-0.538,0.143
		c-0.259,0.085-0.423,0.25-0.417,0.544c0.001,0.041-0.02,0.101-0.05,0.119c-0.182,0.114-0.377,0.194-0.599,0.179
		c-0.106-0.008-0.179-0.066-0.203-0.167c-0.02-0.076-0.018-0.158-0.024-0.236c0.084-0.024,0.149-0.035,0.207-0.062
		c0.156-0.068,0.319-0.127,0.461-0.218c0.293-0.188,0.412-0.475,0.393-0.818c-0.018-0.315-0.204-0.493-0.517-0.518
		c-0.27-0.022-0.482,0.093-0.67,0.264c-0.385,0.352-0.618,0.791-0.665,1.309c-0.02,0.207-0.128,0.303-0.279,0.385
		c-0.051,0.027-0.117,0.026-0.211,0.044c0.014-0.116,0.015-0.203,0.035-0.285c0.113-0.451,0.228-0.902,0.349-1.352
		c0.028-0.106,0.076-0.209,0.124-0.31c0.11-0.234,0.235-0.462,0.336-0.701c0.061-0.145,0.108-0.302,0.121-0.457
		c0.025-0.315-0.153-0.469-0.471-0.427c-0.267,0.034-0.448,0.195-0.592,0.407c-0.155,0.229-0.231,0.487-0.279,0.757
		c-0.1,0.567-0.218,1.133-0.304,1.703c-0.037,0.251-0.165,0.403-0.375,0.51c-0.089,0.046-0.177,0.098-0.271,0.125
		c-0.101,0.029-0.208,0.043-0.313,0.044c-0.117,0.001-0.188-0.062-0.215-0.173c-0.017-0.071-0.019-0.146-0.025-0.201
		c0.221-0.096,0.428-0.166,0.617-0.27c0.297-0.163,0.44-0.433,0.451-0.771c0.013-0.381-0.196-0.595-0.578-0.604
		c-0.221-0.005-0.402,0.087-0.562,0.224c-0.426,0.365-0.665,0.831-0.725,1.39c-0.006,0.052,0.001,0.122-0.028,0.15
		c-0.115,0.108-0.236,0.212-0.367,0.299c-0.076,0.05-0.14-0.003-0.127-0.097c0.011-0.074,0.034-0.149,0.062-0.22
		c0.098-0.246,0.206-0.488,0.297-0.737c0.054-0.148,0.098-0.304,0.121-0.459c0.023-0.158-0.025-0.308-0.167-0.403
		c-0.142-0.095-0.292-0.081-0.435-0.001c-0.081,0.047-0.164,0.099-0.228,0.165c-0.138,0.145-0.265,0.3-0.395,0.451
		c-0.037,0.043-0.071,0.089-0.111,0.139c0.017-0.157,0.045-0.301,0.044-0.445c0-0.198-0.128-0.309-0.329-0.312
		c-0.15-0.002-0.282,0.054-0.385,0.154c-0.129,0.126-0.243,0.27-0.362,0.408c-0.041,0.047-0.074,0.101-0.11,0.15
		c0.013-0.139,0.051-0.268,0.07-0.399c0.034-0.231-0.07-0.337-0.301-0.309c-0.063,0.008-0.126,0.028-0.185,0.054
		c-0.166,0.072-0.299,0.185-0.412,0.325c-0.134,0.168-0.188,0.359-0.135,0.563c0.034,0.135,0.016,0.255-0.024,0.379
		c-0.052,0.161-0.188,0.204-0.342,0.108c0.04-0.135,0.086-0.269,0.119-0.405c0.052-0.22,0.079-0.441,0.008-0.663
		c-0.085-0.269-0.232-0.344-0.494-0.253c-0.12-0.196-0.264-0.262-0.489-0.202c-0.106,0.028-0.217,0.071-0.303,0.137
		c-0.125,0.095-0.244,0.205-0.342,0.328c-0.256,0.321-0.385,0.698-0.441,1.102c-0.007,0.05-0.017,0.113-0.05,0.144
		c-0.116,0.107-0.236,0.215-0.367,0.302c-0.141,0.094-0.205,0.053-0.191-0.122c0.014-0.188,0.05-0.373,0.075-0.56
		c0.015-0.107,0.047-0.198,0.139-0.272c0.071-0.058,0.127-0.141,0.172-0.222c0.125-0.228,0.093-0.388-0.096-0.566
		c-0.008-0.008-0.01-0.021-0.023-0.051c0.06-0.192,0.122-0.401,0.188-0.607c0.079-0.243,0.242-0.388,0.502-0.401
		c0.093-0.005,0.136-0.056,0.17-0.129c0.113-0.249-0.042-0.547-0.33-0.612c-0.306-0.07-0.572,0.004-0.777,0.254
		c-0.14,0.172-0.237,0.368-0.298,0.578c-0.101,0.35-0.186,0.705-0.278,1.058c-0.036,0.14-0.073,0.279-0.11,0.419
		c-0.142,0.036-0.284,0.073-0.427,0.108c-0.008,0.002-0.02-0.008-0.043-0.017c0.03-0.157,0.063-0.317,0.092-0.478
		c0.087-0.488,0.161-0.979,0.128-1.476c-0.011-0.173-0.057-0.347-0.104-0.515c-0.033-0.117-0.121-0.201-0.242-0.24
		c-0.302-0.097-0.686,0.127-0.76,0.437c-0.039,0.16-0.002,0.308,0.067,0.444c0.125,0.242,0.138,0.495,0.108,0.757
		c-0.01,0.094-0.018,0.188-0.03,0.281C25.77,64.092,25.727,64.399,25.682,64.728z M32.142,48.449c0.084,0,0.148,0.002,0.212-0.001
		c0.212-0.01,0.424-0.017,0.635-0.033c0.284-0.023,0.467-0.188,0.559-0.448c0.098-0.277,0.074-0.546-0.125-0.78
		c-0.053-0.063-0.11-0.094-0.201-0.061c-0.099,0.035-0.206,0.051-0.31,0.069c-0.188,0.034-0.378,0.063-0.591,0.1
		c0.048-0.137,0.087-0.241,0.123-0.347c0.131-0.391,0.266-0.78,0.387-1.174c0.068-0.218,0.061-0.441-0.007-0.661
		c-0.069-0.227-0.218-0.359-0.454-0.388c-0.464-0.056-0.861,0.083-1.18,0.429c-0.251,0.271-0.389,0.601-0.46,0.959
		c-0.075,0.38-0.037,0.764-0.036,1.146c0,0.087,0,0.175,0,0.28c-0.212,0.024-0.381,0.134-0.536,0.294
		c-0.024-0.055-0.041-0.091-0.056-0.128c-0.144-0.361-0.417-0.567-0.792-0.628c-0.401-0.064-0.786-0.011-1.14,0.206
		c-0.249,0.152-0.465,0.343-0.65,0.566c-0.578,0.694-0.902,1.497-1,2.393c-0.011,0.097-0.03,0.185-0.091,0.262
		c-0.168,0.212-0.327,0.433-0.505,0.636c-0.195,0.222-0.428,0.404-0.695,0.537c-0.213,0.105-0.436,0.176-0.678,0.166
		c-0.153-0.006-0.276-0.067-0.355-0.197c-0.106-0.175-0.146-0.367-0.149-0.567c0.113-0.055,0.213-0.104,0.313-0.153
		c0.38-0.194,0.735-0.423,1.03-0.737c0.394-0.42,0.565-0.913,0.498-1.489c-0.06-0.512-0.358-0.867-0.834-0.943
		c-0.182-0.029-0.378-0.021-0.561,0.011c-0.349,0.058-0.635,0.253-0.877,0.499c-0.898,0.916-1.294,2.019-1.185,3.297
		c0.029,0.335,0.112,0.661,0.273,0.963c0.246,0.459,0.631,0.697,1.149,0.734c0.512,0.038,0.979-0.093,1.417-0.353
		c0.477-0.283,0.875-0.654,1.228-1.08c0.039-0.046,0.079-0.092,0.116-0.135c0.109,0.231,0.193,0.453,0.313,0.652
		c0.252,0.419,0.629,0.656,1.121,0.708c0.404,0.042,0.785-0.039,1.151-0.204c0.424-0.192,0.789-0.468,1.124-0.788
		c0.045-0.042,0.09-0.084,0.142-0.132c0.034,0.047,0.055,0.075,0.075,0.104c0.222,0.314,0.534,0.473,0.908,0.515
		c0.43,0.048,0.831-0.041,1.202-0.266c0.305-0.186,0.577-0.409,0.823-0.664c0.482-0.5,0.892-1.052,1.155-1.699
		c0.052-0.13,0.088-0.27,0.104-0.408c0.023-0.207-0.083-0.35-0.28-0.414c-0.164-0.055-0.208-0.038-0.298,0.116
		c-0.231,0.398-0.49,0.778-0.804,1.116c-0.193,0.208-0.399,0.405-0.655,0.533c-0.124,0.062-0.262,0.106-0.399,0.127
		c-0.154,0.023-0.248-0.05-0.286-0.201c-0.027-0.107-0.045-0.222-0.04-0.331c0.023-0.429,0.054-0.857,0.089-1.286
		C32.078,48.936,32.112,48.702,32.142,48.449z M15.09,47.975c0.213-0.099,0.384-0.486,0.396-0.786
		c0.026-0.625-0.342-1.179-0.953-1.353c-0.843-0.24-1.626-0.087-2.266,0.521c-0.828,0.787-1.062,1.765-0.786,2.865
		c0.148,0.588,0.484,1.067,0.895,1.502c0.243,0.257,0.495,0.506,0.728,0.771c0.19,0.216,0.371,0.442,0.534,0.68
		c0.205,0.301,0.256,0.641,0.19,0.998c-0.069,0.373-0.339,0.65-0.669,0.683c-0.364,0.036-0.688-0.062-0.97-0.295
		c-0.228-0.188-0.388-0.427-0.509-0.692c-0.17-0.373-0.256-0.77-0.297-1.176c-0.021-0.216-0.09-0.285-0.307-0.31
		c-0.258-0.029-0.49,0.037-0.696,0.196c-0.177,0.137-0.299,0.315-0.391,0.517c-0.181,0.396-0.236,0.816-0.187,1.243
		c0.11,0.952,0.601,1.618,1.518,1.94c0.441,0.155,0.897,0.181,1.361,0.136c1-0.095,1.814-0.525,2.4-1.348
		c0.669-0.938,0.816-2.153,0.024-3.225c-0.245-0.332-0.51-0.648-0.771-0.967c-0.236-0.286-0.491-0.558-0.717-0.852
		c-0.153-0.199-0.28-0.421-0.403-0.642c-0.09-0.161-0.118-0.344-0.099-0.531c0.026-0.256,0.188-0.421,0.443-0.444
		c0.064-0.005,0.129-0.004,0.194,0c0.24,0.014,0.463,0.09,0.673,0.198C14.649,47.722,14.867,47.851,15.09,47.975z M18.779,53.238
		c0.038,0.059,0.056,0.088,0.074,0.117c0.022,0.035,0.043,0.07,0.066,0.104c0.255,0.374,0.601,0.526,1.052,0.444
		c0.452-0.082,0.826-0.302,1.15-0.615c0.366-0.354,0.629-0.777,0.833-1.239c0.289-0.655,0.436-1.345,0.453-2.058
		c0.007-0.292-0.022-0.588-0.062-0.879c-0.033-0.242-0.145-0.46-0.318-0.639c-0.281-0.29-0.78-0.345-1.105-0.122
		c-0.14,0.096-0.214,0.204-0.174,0.399c0.072,0.351,0.134,0.708,0.15,1.064c0.018,0.387-0.009,0.777-0.041,1.164
		c-0.028,0.358-0.094,0.714-0.241,1.046c-0.056,0.127-0.132,0.251-0.224,0.354c-0.122,0.139-0.29,0.149-0.413,0.055
		c-0.147-0.112-0.21-0.341-0.128-0.482c0.293-0.512,0.487-1.059,0.573-1.642c0.048-0.328,0.065-0.655-0.036-0.98
		c-0.188-0.605-0.921-0.637-1.232-0.311c-0.152,0.16-0.279,0.335-0.378,0.53c-0.249,0.49-0.376,1.015-0.421,1.56
		c-0.029,0.359-0.012,0.719,0.053,1.073c0.018,0.099-0.007,0.157-0.085,0.208c-0.13,0.086-0.271,0.144-0.426,0.157
		c-0.165,0.016-0.254-0.04-0.318-0.192c-0.02-0.049-0.032-0.101-0.043-0.152c-0.058-0.276-0.031-0.553,0.021-0.825
		c0.174-0.92,0.519-1.771,1.051-2.545c0.051-0.074,0.066-0.146,0.058-0.231c-0.04-0.401-0.293-0.648-0.701-0.647
		c-0.734,0.003-1.3,0.327-1.697,0.942c-0.103,0.159-0.165,0.34-0.174,0.531c-0.014,0.31,0.071,0.582,0.328,0.789
		c-0.051,0.101-0.099,0.194-0.146,0.288c-0.278,0.558-0.495,1.134-0.523,1.765c-0.017,0.38,0.015,0.755,0.162,1.11
		c0.17,0.413,0.473,0.663,0.919,0.736c0.237,0.039,0.471,0.023,0.701-0.034c0.443-0.109,0.801-0.362,1.115-0.684
		C18.695,53.354,18.731,53.3,18.779,53.238z M14.573,63.467c0.085-0.01,0.156-0.012,0.224-0.027c0.241-0.052,0.485-0.095,0.719-0.17
		c0.129-0.042,0.256-0.126,0.356-0.22c0.221-0.206,0.229-0.577,0.035-0.784c-0.104-0.11-0.15-0.117-0.295-0.069
		c-0.189,0.063-0.381,0.121-0.573,0.177c-0.059,0.018-0.121,0.022-0.199,0.036c0.015-0.074,0.025-0.126,0.036-0.176
		c0.047-0.219,0.105-0.436,0.138-0.656c0.045-0.301-0.01-0.579-0.264-0.78c-0.259-0.205-0.697-0.214-0.987-0.022
		c-0.016,0.607-0.11,1.209-0.241,1.812c-0.232,0.021-0.453,0.042-0.694,0.063c0.01-0.076,0.016-0.133,0.025-0.188
		c0.037-0.221,0.08-0.44,0.11-0.662c0.034-0.25,0-0.494-0.118-0.721c-0.154-0.296-0.454-0.423-0.775-0.342
		c-0.097,0.024-0.144,0.065-0.16,0.175c-0.086,0.582-0.183,1.163-0.278,1.743c-0.005,0.034-0.021,0.065-0.03,0.092
		c-0.177,0.033-0.348,0.053-0.51,0.101c-0.134,0.039-0.266,0.099-0.383,0.173c-0.143,0.091-0.215,0.234-0.195,0.408
		c0.021,0.174,0.08,0.221,0.255,0.212c0.07-0.004,0.141-0.014,0.211-0.015c0.146-0.003,0.291-0.001,0.452-0.001
		c-0.074,0.356-0.145,0.7-0.217,1.048c-0.128,0.015-0.247,0.021-0.361,0.043c-0.144,0.028-0.291,0.055-0.425,0.108
		c-0.21,0.083-0.301,0.258-0.279,0.481c0.017,0.169,0.076,0.224,0.247,0.225c0.199,0,0.399,0,0.614,0
		c-0.012,0.069-0.021,0.12-0.029,0.172c-0.034,0.202-0.075,0.405-0.099,0.609c-0.021,0.172,0.004,0.341,0.092,0.495
		c0.128,0.225,0.397,0.32,0.624,0.226c0.07-0.028,0.113-0.068,0.12-0.154c0.012-0.146,0.032-0.293,0.063-0.437
		c0.066-0.31,0.141-0.618,0.214-0.935c0.313-0.017,0.609-0.033,0.916-0.05c-0.009,0.063-0.015,0.104-0.02,0.145
		c-0.04,0.303-0.087,0.605-0.114,0.909c-0.016,0.181,0.047,0.35,0.165,0.491c0.144,0.173,0.378,0.249,0.571,0.188
		c0.12-0.037,0.159-0.09,0.172-0.213c0.023-0.21,0.039-0.423,0.079-0.63c0.063-0.322,0.145-0.641,0.218-0.961
		c0.066-0.005,0.112-0.007,0.158-0.014c0.221-0.031,0.446-0.047,0.662-0.102c0.138-0.035,0.276-0.109,0.388-0.199
		c0.213-0.171,0.253-0.51,0.108-0.721c-0.076-0.11-0.108-0.122-0.235-0.086c-0.051,0.015-0.101,0.033-0.152,0.044
		c-0.199,0.041-0.397,0.095-0.619,0.084C14.386,64.079,14.477,63.781,14.573,63.467z M21.025,65.878
		c0.021,0.039,0.038,0.069,0.054,0.1c0.115,0.231,0.304,0.353,0.559,0.376c0.291,0.026,0.527-0.097,0.741-0.274
		c0.225-0.187,0.397-0.417,0.535-0.674c0.371-0.695,0.501-1.441,0.453-2.221c-0.017-0.273-0.101-0.531-0.263-0.759
		c-0.3-0.422-0.816-0.479-1.183-0.336c-0.202,0.079-0.333,0.221-0.35,0.445c-0.01,0.147,0.037,0.2,0.182,0.226
		c0.475,0.086,0.746,0.385,0.779,0.867c0.021,0.313-0.003,0.623-0.064,0.931c-0.054,0.272-0.124,0.54-0.255,0.786
		c-0.043,0.082-0.097,0.164-0.165,0.227c-0.107,0.098-0.236,0.048-0.265-0.093c-0.007-0.034-0.008-0.07-0.007-0.105
		c0.011-0.491,0.151-0.929,0.541-1.255c0.067-0.057,0.072-0.115,0.051-0.188c-0.038-0.126-0.16-0.188-0.314-0.159
		c-0.167,0.032-0.305,0.122-0.427,0.236c-0.363,0.338-0.574,0.755-0.648,1.244c-0.008,0.055-0.022,0.12-0.059,0.157
		c-0.077,0.08-0.166,0.15-0.259,0.212c-0.048,0.031-0.114,0.035-0.169,0.051c-0.057-0.111-0.023-0.196,0.008-0.277
		c0.09-0.236,0.188-0.47,0.279-0.706c0.071-0.182,0.135-0.365,0.125-0.564c-0.011-0.231-0.154-0.367-0.387-0.366
		c-0.15,0-0.282,0.06-0.385,0.155c-0.163,0.151-0.31,0.32-0.461,0.484c-0.035,0.038-0.063,0.083-0.094,0.125
		c-0.002-0.108,0.026-0.197,0.045-0.289c0.02-0.092,0.034-0.185,0.044-0.278c0.023-0.224-0.054-0.326-0.338-0.267
		c-0.072,0.016-0.145,0.054-0.205,0.1c-0.098,0.074-0.193,0.155-0.274,0.247c-0.221,0.25-0.347,0.526-0.248,0.875
		c0.038,0.133-0.014,0.273-0.115,0.369c-0.247,0.233-0.528,0.414-0.852,0.522c-0.164,0.055-0.333,0.078-0.505,0.044
		c-0.177-0.034-0.304-0.152-0.33-0.324c-0.043-0.276,0.063-0.502,0.243-0.702c0.073,0.039,0.128,0.072,0.187,0.099
		c0.193,0.087,0.372,0.057,0.519-0.092c0.069-0.069,0.136-0.153,0.171-0.243c0.134-0.345,0.028-0.409-0.265-0.396
		c-0.122,0.005-0.244,0.022-0.362,0.033c-0.161-0.311-0.16-0.871,0.049-1.198c0.031-0.05,0.068-0.097,0.108-0.139
		c0.061-0.062,0.135-0.104,0.223-0.07c0.082,0.03,0.111,0.107,0.11,0.187c0,0.11-0.008,0.223-0.026,0.332
		c-0.013,0.079-0.046,0.155-0.07,0.23c0.073,0.106,0.176,0.101,0.274,0.085c0.197-0.031,0.351-0.138,0.452-0.309
		c0.143-0.24,0.165-0.502,0.098-0.769c-0.044-0.176-0.163-0.299-0.334-0.362c-0.168-0.063-0.343-0.083-0.521-0.06
		c-0.606,0.079-1.141,0.573-1.284,1.186c-0.048,0.204-0.063,0.411,0.001,0.61c0.055,0.171,0.137,0.333,0.211,0.509
		c-0.07,0.044-0.155,0.095-0.236,0.15c-0.243,0.167-0.437,0.376-0.547,0.654c-0.217,0.547,0.044,1.11,0.604,1.289
		c0.221,0.071,0.449,0.089,0.681,0.06c0.477-0.062,0.884-0.274,1.253-0.571c0.054-0.044,0.107-0.088,0.167-0.137
		c0.034,0.063,0.059,0.115,0.091,0.164c0.11,0.17,0.264,0.267,0.471,0.263c0.155-0.003,0.19-0.045,0.206-0.198
		c0.026-0.252,0.067-0.502,0.085-0.754c0.019-0.261,0.185-0.41,0.372-0.549c0.056-0.041,0.119-0.082,0.21-0.02
		c-0.011,0.055-0.019,0.117-0.038,0.176c-0.05,0.15-0.114,0.298-0.155,0.45c-0.042,0.158-0.084,0.321-0.092,0.483
		c-0.017,0.37,0.204,0.54,0.568,0.451c0.079-0.02,0.159-0.049,0.229-0.091c0.146-0.088,0.285-0.187,0.426-0.283
		C20.93,65.958,20.973,65.919,21.025,65.878z M59.917,66.053c0.011,0.016,0.023,0.028,0.03,0.043
		c0.129,0.285,0.374,0.366,0.678,0.286c0.261-0.068,0.467-0.22,0.641-0.418c0.291-0.331,0.463-0.721,0.551-1.149
		c0.044-0.22,0.077-0.441,0.037-0.666c-0.04-0.227-0.166-0.366-0.362-0.407c-0.257-0.054-0.392,0.07-0.366,0.328
		c0.047,0.472-0.033,0.927-0.205,1.366c-0.033,0.085-0.09,0.166-0.15,0.235c-0.071,0.082-0.154,0.089-0.219,0.039
		c-0.075-0.057-0.099-0.169-0.051-0.252c0.021-0.035,0.048-0.067,0.07-0.103c0.184-0.286,0.31-0.594,0.346-0.935
		c0.031-0.3-0.128-0.498-0.391-0.49c-0.145,0.004-0.239,0.092-0.322,0.192c-0.196,0.236-0.313,0.514-0.366,0.813
		c-0.035,0.202-0.041,0.409-0.063,0.631c-0.038,0.018-0.089,0.049-0.145,0.063c-0.182,0.044-0.265-0.014-0.259-0.199
		c0.004-0.14,0.024-0.282,0.064-0.415c0.121-0.405,0.323-0.771,0.597-1.094c0.068-0.08,0.094-0.156,0.064-0.257
		c-0.047-0.158-0.16-0.246-0.361-0.255c-0.225-0.009-0.434,0.055-0.611,0.191c-0.365,0.281-0.379,0.557-0.217,0.816
		c-0.124,0.269-0.243,0.523-0.36,0.778c-0.047,0.102-0.109,0.111-0.245,0.032c0.032-0.105,0.066-0.211,0.098-0.317
		c0.067-0.235,0.097-0.476,0.038-0.716c-0.07-0.293-0.22-0.375-0.501-0.298c-0.143-0.203-0.285-0.252-0.53-0.184
		c-0.231,0.064-0.407,0.21-0.556,0.389c-0.275,0.33-0.427,0.714-0.484,1.139c-0.029,0.218-0.034,0.435,0.04,0.646
		c0.1,0.284,0.327,0.445,0.628,0.458c0.308,0.013,0.563-0.1,0.781-0.309c0.084-0.081,0.16-0.17,0.222-0.236
		c0.161,0.009,0.301,0.016,0.447,0.023c0.011,0.032,0.025,0.07,0.036,0.109c0.067,0.24,0.228,0.375,0.47,0.424
		c0.188,0.037,0.366,0.012,0.533-0.07C59.654,66.221,59.776,66.137,59.917,66.053z M54.385,64.145
		c0.017,0.029,0.025,0.045,0.033,0.061c0.212,0.401,0.424,0.802,0.637,1.202c0.039,0.073,0.03,0.142,0.005,0.219
		c-0.054,0.161-0.11,0.324-0.141,0.49c-0.032,0.178,0.047,0.277,0.22,0.325c0.46,0.128,0.87-0.166,0.883-0.642
		c0.004-0.176-0.022-0.353-0.027-0.528c-0.003-0.099-0.004-0.2,0.019-0.295c0.069-0.286,0.143-0.571,0.229-0.853
		c0.095-0.309,0.197-0.615,0.312-0.918c0.079-0.21,0.225-0.36,0.466-0.379c0.083-0.007,0.124-0.059,0.155-0.126
		c0.104-0.227-0.012-0.51-0.249-0.599c-0.221-0.082-0.567-0.066-0.744,0.268c-0.097,0.181-0.179,0.374-0.23,0.571
		c-0.119,0.454-0.217,0.915-0.324,1.374c-0.008,0.034-0.024,0.068-0.043,0.118c-0.237-0.412-0.462-0.806-0.691-1.195
		c-0.053-0.09-0.038-0.158,0.012-0.243c0.094-0.162,0.188-0.327,0.258-0.501c0.107-0.263-0.004-0.437-0.284-0.476
		c-0.429-0.061-0.833,0.214-0.948,0.645c-0.069,0.26-0.026,0.514,0.046,0.766c0.021,0.076,0.032,0.145-0.004,0.221
		c-0.261,0.554-0.515,1.111-0.781,1.662c-0.082,0.168-0.194,0.322-0.303,0.476c-0.046,0.065-0.112,0.123-0.181,0.165
		c-0.115,0.07-0.209,0.026-0.234-0.104c-0.014-0.067-0.021-0.143-0.008-0.209c0.029-0.149,0.068-0.298,0.114-0.443
		c0.043-0.139,0.019-0.207-0.119-0.254c-0.049-0.017-0.104-0.022-0.156-0.022c-0.248,0.004-0.423,0.136-0.545,0.338
		c-0.19,0.314-0.214,0.656-0.134,1.007c0.056,0.248,0.224,0.397,0.467,0.454c0.313,0.073,0.614,0.033,0.871-0.17
		c0.142-0.111,0.283-0.237,0.385-0.385c0.187-0.27,0.362-0.552,0.51-0.845C54.045,64.946,54.202,64.558,54.385,64.145z"/>
	<path class="st0" d="M34.762,31.642c0.06-0.051,0.101-0.083,0.14-0.118c0.369-0.33,0.92-0.36,1.32-0.069
		c0.209,0.152,0.36,0.355,0.486,0.577c0.216,0.379,0.338,0.792,0.388,1.222c0.092,0.802,0.049,1.6-0.122,2.389
		c-0.059,0.271-0.126,0.539-0.188,0.809c-0.039,0.168-0.018,0.205,0.148,0.253c0.176,0.051,0.352,0.038,0.522-0.017
		c0.105-0.034,0.208-0.081,0.309-0.129c0.217-0.103,0.342-0.258,0.365-0.514c0.022-0.256,0.089-0.51,0.147-0.762
		c0.024-0.109,0.022-0.205-0.025-0.307c-0.181-0.383-0.259-0.793-0.305-1.21c-0.042-0.373,0.034-0.729,0.186-1.067
		c0.385-0.862,0.994-1.525,1.814-1.989c0.326-0.184,0.679-0.297,1.061-0.294c0.49,0.003,0.778,0.263,0.829,0.756
		c0.052,0.502,0.02,1.001-0.095,1.493c-0.074,0.321-0.163,0.638-0.246,0.958c-0.016,0.062-0.033,0.123-0.02,0.201
		c0.03-0.055,0.062-0.109,0.09-0.165c0.251-0.487,0.489-0.98,0.755-1.459c0.304-0.548,0.66-1.061,1.117-1.496
		c0.325-0.309,0.69-0.548,1.133-0.657c0.22-0.054,0.443-0.076,0.666-0.042c0.528,0.08,0.909,0.444,1.015,0.973
		c0.11,0.551,0.091,1.102-0.05,1.646c-0.048,0.188-0.11,0.373-0.165,0.559c-0.015,0.049-0.026,0.099-0.04,0.148
		c0.012,0.006,0.023,0.012,0.034,0.017c0.033-0.056,0.068-0.111,0.1-0.168c0.354-0.653,0.722-1.297,1.142-1.911
		c0.326-0.478,0.68-0.933,1.105-1.329c0.23-0.214,0.479-0.399,0.766-0.532c0.296-0.137,0.608-0.189,0.931-0.146
		c0.479,0.063,0.826,0.323,1.056,0.743c0.198,0.363,0.245,0.757,0.232,1.164c-0.021,0.653-0.175,1.281-0.358,1.904
		c-0.271,0.92-0.537,1.842-0.802,2.764c-0.047,0.164-0.082,0.332-0.106,0.5c-0.021,0.145-0.032,0.293-0.028,0.439
		c0.01,0.294,0.221,0.427,0.484,0.292c0.166-0.084,0.324-0.197,0.458-0.326c0.254-0.245,0.489-0.509,0.73-0.768
		c0.068-0.073,0.122-0.159,0.192-0.231c0.103-0.106,0.131-0.227,0.114-0.372c-0.058-0.495-0.021-0.99,0.051-1.479
		c0.206-1.414,0.727-2.701,1.572-3.854c0.376-0.512,0.813-0.961,1.339-1.324c0.704-0.485,1.476-0.625,2.307-0.464
		c0.718,0.14,1.201,0.566,1.42,1.257c0.422,1.333,0.204,2.818-1.061,3.894c-0.531,0.452-1.134,0.78-1.771,1.051
		c-0.205,0.087-0.416,0.164-0.624,0.244c-0.135,0.052-0.146,0.056-0.12,0.191c0.048,0.253,0.086,0.513,0.172,0.755
		c0.154,0.431,0.454,0.623,0.909,0.613c0.164-0.003,0.33-0.024,0.49-0.058c0.604-0.129,1.139-0.409,1.638-0.763
		c0.974-0.69,1.724-1.582,2.322-2.607c0.023-0.041,0.046-0.082,0.069-0.123c0.148-0.268,0.173-0.28,0.471-0.196
		c0.323,0.09,0.57,0.364,0.556,0.725c-0.014,0.337-0.105,0.65-0.234,0.955c-0.23,0.546-0.551,1.04-0.913,1.507
		c-0.788,1.015-1.711,1.883-2.813,2.55c-0.572,0.347-1.177,0.623-1.84,0.747c-0.537,0.1-1.076,0.116-1.614-0.01
		c-0.726-0.171-1.278-0.579-1.664-1.216c-0.048-0.08-0.094-0.16-0.154-0.264c-0.074,0.077-0.136,0.137-0.191,0.201
		c-0.468,0.532-0.966,1.033-1.521,1.476c-0.355,0.284-0.73,0.538-1.146,0.729c-0.522,0.24-1.065,0.288-1.622,0.162
		c-0.373-0.085-0.638-0.317-0.799-0.665c-0.158-0.343-0.22-0.708-0.236-1.081c-0.026-0.587,0.065-1.164,0.194-1.733
		c0.176-0.775,0.373-1.545,0.557-2.318c0.039-0.166,0.076-0.334,0.088-0.503c0.021-0.302-0.198-0.44-0.459-0.285
		c-0.165,0.098-0.318,0.224-0.458,0.357c-0.436,0.413-0.773,0.902-1.073,1.419c-0.028,0.049-0.048,0.109-0.051,0.166
		c-0.042,0.611-0.079,1.223-0.119,1.833c-0.056,0.86-0.042,1.72-0.013,2.58c0.002,0.071-0.015,0.123-0.063,0.174
		c-0.126,0.132-0.271,0.229-0.448,0.271c-0.514,0.121-1.026,0.131-1.534-0.034c-0.455-0.146-0.764-0.453-0.943-0.892
		c-0.112-0.275-0.167-0.563-0.175-0.86c-0.023-0.921,0.134-1.818,0.337-2.71c0.103-0.454,0.215-0.905,0.313-1.359
		c0.025-0.119,0.031-0.247,0.023-0.369c-0.012-0.161-0.099-0.236-0.258-0.223c-0.09,0.008-0.192,0.033-0.26,0.087
		c-0.156,0.124-0.306,0.261-0.437,0.41c-0.312,0.356-0.563,0.755-0.797,1.166c-0.028,0.049-0.046,0.109-0.05,0.166
		c-0.093,1.234-0.165,2.469-0.139,3.708c0.005,0.218,0.014,0.436,0.031,0.652c0.011,0.128-0.039,0.212-0.132,0.288
		c-0.163,0.134-0.356,0.179-0.555,0.209c-0.712,0.11-1.313-0.108-1.818-0.61c-0.325-0.322-0.539-0.712-0.679-1.145
		c-0.019-0.061-0.038-0.12-0.063-0.2c-0.096,0.04-0.176,0.072-0.254,0.106c-0.423,0.185-0.862,0.285-1.324,0.229
		c-0.145-0.018-0.285-0.068-0.444-0.107c-0.039,0.057-0.083,0.117-0.122,0.181c-0.316,0.507-0.674,0.979-1.11,1.392
		c-0.729,0.686-1.592,1.066-2.59,1.109c-1.064,0.045-1.9-0.371-2.462-1.295c-0.026-0.044-0.058-0.085-0.098-0.142
		c-0.072,0.078-0.132,0.142-0.19,0.207c-0.578,0.665-1.208,1.274-1.925,1.789c-0.5,0.36-1.028,0.666-1.624,0.84
		c-0.319,0.094-0.644,0.142-0.977,0.122c-0.563-0.034-0.951-0.311-1.159-0.836c-0.134-0.339-0.176-0.696-0.186-1.057
		c-0.026-1.037,0.037-2.072,0.122-3.106c0.019-0.222,0.031-0.444,0.048-0.684c-0.063,0.014-0.107,0.02-0.15,0.032
		c-0.662,0.188-1.323,0.382-1.987,0.561c-0.149,0.041-0.223,0.109-0.268,0.257c-0.333,1.097-0.77,2.15-1.352,3.141
		c-0.53,0.9-1.161,1.718-1.97,2.388c-0.816,0.676-1.739,1.12-2.792,1.279c-2.261,0.344-4.234-1.042-4.743-3.198
		c-0.125-0.534-0.156-1.073-0.079-1.614c0.103-0.719,0.472-1.285,1.044-1.723c0.455-0.348,0.968-0.58,1.503-0.77
		c0.702-0.249,1.428-0.399,2.158-0.53c1.083-0.195,2.168-0.383,3.253-0.573c0.24-0.042,0.237-0.042,0.256-0.286
		c0.099-1.299,0.129-2.602,0.126-3.904c-0.001-0.636-0.035-1.272-0.061-1.908c-0.013-0.321-0.089-0.63-0.237-0.917
		c-0.156-0.304-0.32-0.604-0.48-0.905c-0.168-0.318-0.329-0.64-0.388-1c-0.143-0.879,0.104-1.61,0.832-2.149
		c0.492-0.364,1.054-0.542,1.663-0.569c0.422-0.018,0.768,0.15,1.05,0.457c0.264,0.287,0.435,0.628,0.569,0.989
		c0.194,0.521,0.309,1.063,0.387,1.611c0.161,1.129,0.188,2.265,0.154,3.403c-0.016,0.518-0.025,1.037-0.053,1.554
		c-0.044,0.835-0.109,1.669-0.228,2.498c-0.009,0.063-0.011,0.127-0.017,0.205c0.041-0.003,0.07,0,0.094-0.008
		c0.569-0.206,1.138-0.416,1.708-0.62c0.131-0.047,0.194-0.121,0.202-0.268c0.018-0.371,0.051-0.741,0.083-1.11
		c0.135-1.567,0.303-3.13,0.673-4.663c0.154-0.636,0.349-1.26,0.64-1.849c0.184-0.372,0.406-0.717,0.696-1.017
		c0.471-0.487,1.054-0.737,1.718-0.822c0.459-0.059,0.906-0.028,1.337,0.146c0.738,0.299,1.177,1.03,1.094,1.819
		c-0.026,0.25-0.12,0.478-0.245,0.694c-0.046,0.081-0.115,0.109-0.199,0.129c-0.195,0.045-0.389,0.094-0.582,0.146
		c-0.643,0.178-1.073,0.584-1.308,1.208c-0.184,0.488-0.294,0.994-0.384,1.503c-0.089,0.504-0.162,1.012-0.241,1.518
		c-0.004,0.028-0.003,0.058-0.005,0.095c0.035,0.021,0.068,0.045,0.104,0.062c0.521,0.239,0.828,0.755,0.787,1.4
		c-0.044,0.691-0.354,1.261-0.8,1.77c-0.085,0.097-0.183,0.185-0.265,0.285c-0.039,0.046-0.074,0.111-0.078,0.169
		c-0.052,0.846-0.102,1.693-0.141,2.541c-0.009,0.192,0.014,0.389,0.045,0.579c0.063,0.378,0.285,0.455,0.597,0.265
		c0.195-0.118,0.377-0.263,0.548-0.414c0.407-0.36,0.761-0.771,1.102-1.194c0.058-0.071,0.065-0.146,0.064-0.229
		c-0.001-0.46,0.011-0.919,0.076-1.375c0.227-1.576,0.761-3.022,1.801-4.253c0.299-0.353,0.64-0.661,1.036-0.902
		c0.477-0.291,0.987-0.477,1.555-0.439c0.167,0.011,0.338,0.052,0.497,0.109c0.269,0.098,0.453,0.29,0.536,0.57
		C34.717,31.528,34.736,31.57,34.762,31.642z M34.385,32.407c-0.008-0.01-0.016-0.021-0.024-0.031
		c-0.053,0.033-0.107,0.063-0.158,0.099c-0.375,0.274-0.681,0.616-0.927,1.008c-0.709,1.13-1.041,2.362-0.978,3.696
		c0.017,0.354,0.077,0.702,0.232,1.026c0.253,0.526,0.761,0.659,1.228,0.309c0.153-0.114,0.286-0.265,0.4-0.419
		c0.225-0.307,0.359-0.66,0.463-1.023c0.018-0.062,0.008-0.141-0.014-0.203c-0.349-0.978-0.492-1.985-0.441-3.02
		c0.014-0.288,0.051-0.574,0.092-0.859C34.287,32.793,34.342,32.601,34.385,32.407z M18.213,38.829
		c-0.057,0.008-0.092,0.011-0.125,0.017c-0.549,0.104-1.098,0.207-1.646,0.31c-0.549,0.104-1.099,0.202-1.646,0.311
		c-0.261,0.051-0.509,0.146-0.73,0.297c-0.257,0.176-0.349,0.416-0.288,0.72c0.04,0.199,0.115,0.383,0.229,0.551
		c0.292,0.429,0.689,0.72,1.174,0.892c0.644,0.229,1.214,0.1,1.709-0.371c0.232-0.221,0.419-0.477,0.58-0.753
		c0.336-0.579,0.557-1.204,0.733-1.848C18.21,38.921,18.208,38.886,18.213,38.829z M55.116,33.086
		c0.04-0.007,0.076-0.006,0.106-0.02c0.219-0.099,0.448-0.181,0.651-0.307c0.326-0.203,0.546-0.5,0.615-0.886
		c0.052-0.286,0.044-0.573-0.038-0.855c-0.039-0.133-0.106-0.249-0.213-0.338c-0.143-0.119-0.307-0.126-0.451-0.01
		c-0.068,0.054-0.136,0.118-0.179,0.192c-0.096,0.167-0.192,0.338-0.26,0.518c-0.192,0.519-0.244,1.063-0.249,1.612
		C55.099,33.021,55.109,33.049,55.116,33.086z"/>
	<path class="st0" d="M51.872,46.511c0.083-0.162,0.156-0.329,0.25-0.484c0.156-0.257,0.312-0.515,0.491-0.754
		c0.201-0.268,0.454-0.479,0.795-0.555c0.152-0.033,0.305-0.041,0.453,0.014c0.261,0.096,0.382,0.298,0.424,0.561
		c0.048,0.297,0.021,0.587-0.063,0.873c-0.012,0.039-0.019,0.078-0.006,0.131c0.024-0.039,0.051-0.078,0.074-0.119
		c0.254-0.459,0.515-0.915,0.865-1.31c0.116-0.131,0.245-0.257,0.387-0.36c0.116-0.084,0.254-0.156,0.393-0.19
		c0.484-0.117,0.884,0.173,0.969,0.678c0.05,0.297,0.014,0.59-0.059,0.875c-0.117,0.462-0.259,0.918-0.385,1.378
		c-0.066,0.243-0.125,0.49-0.18,0.737c-0.018,0.079-0.021,0.165-0.011,0.245c0.014,0.121,0.105,0.175,0.218,0.128
		c0.069-0.028,0.14-0.069,0.191-0.122c0.181-0.186,0.353-0.379,0.53-0.567c0.063-0.066,0.043-0.143,0.039-0.217
		c-0.054-1.024,0.246-1.941,0.837-2.77c0.193-0.271,0.424-0.504,0.699-0.693c0.366-0.251,0.769-0.32,1.197-0.238
		c0.358,0.068,0.614,0.281,0.727,0.627c0.233,0.716,0.136,1.374-0.399,1.933c-0.303,0.316-0.68,0.522-1.079,0.691
		c-0.113,0.049-0.228,0.093-0.352,0.144c0.004,0.188,0.041,0.364,0.128,0.527c0.104,0.198,0.283,0.256,0.492,0.235
		c0.226-0.021,0.437-0.092,0.64-0.191c0.429-0.214,0.791-0.516,1.088-0.887c0.224-0.278,0.418-0.581,0.637-0.889
		c0.284-0.03,0.484,0.147,0.443,0.451c-0.024,0.184-0.082,0.369-0.161,0.537c-0.26,0.559-0.653,1.02-1.104,1.434
		c-0.401,0.37-0.842,0.682-1.357,0.875c-0.342,0.129-0.693,0.18-1.058,0.133c-0.423-0.054-0.754-0.253-0.991-0.607
		c-0.032-0.047-0.064-0.094-0.105-0.152c-0.053,0.058-0.097,0.104-0.139,0.151c-0.291,0.326-0.602,0.631-0.965,0.879
		c-0.215,0.146-0.441,0.277-0.706,0.306c-0.133,0.015-0.271,0.014-0.404-0.002c-0.272-0.032-0.449-0.193-0.537-0.449
		c-0.084-0.242-0.113-0.491-0.091-0.748c0.04-0.447,0.143-0.883,0.249-1.317c0.05-0.2,0.1-0.4,0.145-0.602
		c0.015-0.067,0.023-0.14,0.021-0.21c-0.005-0.11-0.075-0.156-0.182-0.123c-0.044,0.014-0.087,0.039-0.123,0.067
		c-0.304,0.236-0.516,0.547-0.703,0.876c-0.024,0.043-0.023,0.103-0.027,0.154c-0.059,0.729-0.092,1.458-0.056,2.189
		c0.002,0.05-0.027,0.118-0.065,0.15c-0.065,0.054-0.146,0.104-0.228,0.124c-0.237,0.059-0.479,0.063-0.718-0.002
		c-0.376-0.101-0.558-0.368-0.627-0.732c-0.058-0.306-0.028-0.612,0.023-0.914c0.079-0.452,0.181-0.899,0.271-1.35
		c0.014-0.068,0.026-0.14,0.022-0.21c-0.005-0.118-0.084-0.172-0.193-0.127c-0.063,0.026-0.122,0.072-0.172,0.12
		c-0.217,0.213-0.375,0.468-0.521,0.731c-0.022,0.039-0.028,0.089-0.031,0.135c-0.044,0.706-0.094,1.411-0.042,2.119
		c0.016,0.213-0.063,0.303-0.279,0.35c-0.469,0.103-0.9-0.066-1.181-0.481c-0.102-0.149-0.17-0.32-0.257-0.489
		c-0.309,0.134-0.632,0.234-0.991,0.1c-0.028,0.041-0.06,0.081-0.087,0.125c-0.166,0.266-0.353,0.515-0.586,0.727
		c-0.396,0.358-0.858,0.552-1.396,0.556c-0.496,0.003-0.888-0.199-1.167-0.611c-0.02-0.029-0.04-0.058-0.072-0.104
		c-0.047,0.05-0.09,0.094-0.13,0.139c-0.309,0.352-0.644,0.674-1.029,0.939c-0.284,0.194-0.582,0.36-0.926,0.421
		c-0.12,0.021-0.246,0.03-0.368,0.023c-0.264-0.016-0.468-0.143-0.561-0.392c-0.063-0.168-0.105-0.352-0.115-0.53
		c-0.032-0.584,0.003-1.166,0.051-1.748c0.007-0.081,0.01-0.163,0.016-0.262c-0.402,0.114-0.789,0.225-1.191,0.339
		c-0.016,0.044-0.035,0.098-0.053,0.153c-0.228,0.723-0.526,1.412-0.969,2.033c-0.308,0.431-0.669,0.808-1.127,1.082
		c-0.524,0.314-1.088,0.478-1.704,0.396c-0.895-0.119-1.599-0.755-1.815-1.633c-0.082-0.329-0.11-0.663-0.029-0.997
		c0.083-0.342,0.283-0.604,0.564-0.809c0.271-0.195,0.57-0.337,0.891-0.419c0.473-0.12,0.95-0.223,1.429-0.32
		c0.409-0.083,0.822-0.149,1.233-0.224c0.028-0.005,0.056-0.017,0.092-0.028c0.007-0.04,0.017-0.079,0.019-0.119
		c0.058-0.906,0.056-1.813,0.036-2.721c-0.009-0.38-0.097-0.731-0.303-1.055c-0.14-0.219-0.265-0.447-0.308-0.709
		c-0.072-0.438,0.051-0.806,0.399-1.086c0.246-0.196,0.533-0.295,0.846-0.323c0.276-0.025,0.492,0.085,0.661,0.299
		c0.171,0.217,0.275,0.469,0.332,0.734c0.072,0.333,0.143,0.67,0.172,1.009c0.085,1.012,0.048,2.024-0.052,3.035
		c-0.014,0.141-0.029,0.28-0.044,0.421c-0.001,0.012,0.005,0.023,0.01,0.048c0.037-0.008,0.075-0.013,0.11-0.025
		c0.254-0.093,0.506-0.19,0.761-0.282c0.104-0.037,0.136-0.104,0.142-0.212c0.043-0.8,0.115-1.598,0.253-2.388
		c0.083-0.476,0.184-0.949,0.387-1.392c0.083-0.181,0.177-0.362,0.299-0.518c0.399-0.511,0.938-0.676,1.559-0.544
		c0.575,0.122,0.881,0.726,0.659,1.244c-0.048,0.111-0.112,0.182-0.24,0.201c-0.549,0.085-0.872,0.408-0.979,0.948
		c-0.088,0.444-0.169,0.889-0.248,1.309c0.026,0.039,0.03,0.054,0.039,0.058c0.409,0.185,0.503,0.554,0.413,0.965
		c-0.066,0.301-0.228,0.555-0.442,0.771c-0.076,0.076-0.114,0.152-0.119,0.261c-0.015,0.418-0.042,0.835-0.057,1.253
		c-0.003,0.104,0.012,0.213,0.037,0.314c0.032,0.133,0.114,0.167,0.24,0.11c0.054-0.024,0.104-0.057,0.15-0.093
		c0.267-0.207,0.494-0.455,0.696-0.724c0.041-0.054,0.047-0.142,0.047-0.214c0.004-0.779,0.162-1.521,0.521-2.215
		c0.174-0.337,0.391-0.645,0.673-0.901c0.234-0.214,0.496-0.384,0.812-0.442c0.132-0.023,0.271-0.031,0.403-0.016
		c0.235,0.029,0.404,0.155,0.465,0.399c0.078-0.049,0.147-0.107,0.228-0.14c0.208-0.084,0.404-0.056,0.577,0.093
		c0.152,0.13,0.248,0.298,0.317,0.481c0.148,0.39,0.164,0.796,0.118,1.202c-0.031,0.274-0.097,0.544-0.147,0.816
		c-0.008,0.045-0.016,0.091-0.023,0.133c0.192,0.11,0.558,0.056,0.621-0.122c0.074-0.212,0.087-0.446,0.12-0.672
		c0.005-0.029-0.028-0.063-0.041-0.096c-0.226-0.544-0.184-1.056,0.18-1.532c0.221-0.29,0.479-0.535,0.813-0.692
		c0.157-0.073,0.321-0.114,0.496-0.105c0.21,0.011,0.325,0.101,0.379,0.306c0.059,0.227,0.044,0.456,0.008,0.684
		c-0.031,0.196-0.077,0.391-0.117,0.586C51.856,46.507,51.864,46.509,51.872,46.511z M48.113,46.024
		c-0.01-0.006-0.021-0.012-0.03-0.018c-0.046,0.034-0.097,0.063-0.138,0.103c-0.084,0.082-0.172,0.163-0.241,0.257
		c-0.481,0.645-0.685,1.372-0.623,2.171c0.012,0.161,0.059,0.326,0.124,0.474c0.115,0.261,0.366,0.324,0.599,0.159
		c0.094-0.066,0.177-0.158,0.238-0.255c0.077-0.124,0.128-0.264,0.189-0.397c0.044-0.096,0.035-0.188-0.001-0.288
		c-0.148-0.413-0.218-0.841-0.218-1.28C48.012,46.638,48.03,46.328,48.113,46.024z M39.774,49.401
		c-0.055,0.004-0.083,0.002-0.111,0.008c-0.438,0.083-0.878,0.163-1.315,0.254c-0.2,0.042-0.403,0.087-0.592,0.164
		c-0.267,0.108-0.328,0.292-0.214,0.559c0.104,0.243,0.29,0.411,0.521,0.53c0.423,0.219,0.797,0.146,1.112-0.208
		c0.039-0.044,0.075-0.09,0.109-0.139C39.525,50.222,39.666,49.831,39.774,49.401z M58.844,46.249
		c0.521-0.062,0.831-0.545,0.68-1.031c-0.035-0.111-0.084-0.215-0.213-0.229c-0.117-0.014-0.181,0.076-0.231,0.162
		C58.879,45.489,58.841,45.863,58.844,46.249z"/>
	<path class="st0" d="M25.682,64.728c0.045-0.328,0.088-0.636,0.129-0.944c0.012-0.094,0.02-0.188,0.03-0.281
		c0.029-0.262,0.016-0.515-0.108-0.757c-0.07-0.137-0.106-0.284-0.067-0.444c0.074-0.31,0.458-0.533,0.76-0.437
		c0.122,0.039,0.209,0.123,0.242,0.24c0.048,0.168,0.093,0.342,0.104,0.515c0.032,0.497-0.041,0.987-0.128,1.476
		c-0.029,0.16-0.062,0.32-0.092,0.478c0.023,0.009,0.035,0.019,0.043,0.017c0.143-0.035,0.285-0.072,0.427-0.108
		c0.037-0.14,0.074-0.279,0.11-0.419c0.092-0.353,0.177-0.708,0.278-1.058c0.061-0.21,0.158-0.406,0.298-0.578
		c0.205-0.25,0.471-0.324,0.777-0.254c0.288,0.065,0.443,0.363,0.33,0.612c-0.034,0.073-0.077,0.124-0.17,0.129
		c-0.26,0.014-0.424,0.158-0.502,0.401c-0.067,0.206-0.129,0.415-0.188,0.607c0.013,0.03,0.016,0.043,0.023,0.051
		c0.189,0.179,0.221,0.339,0.096,0.566c-0.045,0.081-0.101,0.164-0.172,0.222c-0.092,0.074-0.125,0.165-0.139,0.272
		c-0.025,0.187-0.061,0.372-0.075,0.56c-0.013,0.175,0.051,0.216,0.191,0.122c0.131-0.087,0.251-0.194,0.367-0.302
		c0.033-0.03,0.043-0.094,0.05-0.144c0.056-0.403,0.185-0.78,0.441-1.102c0.098-0.123,0.217-0.233,0.342-0.328
		c0.086-0.065,0.197-0.108,0.303-0.137c0.225-0.06,0.369,0.006,0.489,0.202c0.262-0.091,0.409-0.016,0.494,0.253
		c0.07,0.222,0.044,0.443-0.008,0.663c-0.033,0.137-0.079,0.271-0.119,0.405c0.155,0.096,0.291,0.053,0.342-0.108
		c0.041-0.124,0.059-0.244,0.024-0.379c-0.052-0.204,0.001-0.396,0.135-0.563c0.112-0.141,0.246-0.253,0.412-0.325
		c0.059-0.025,0.122-0.046,0.185-0.054c0.23-0.028,0.335,0.077,0.301,0.309c-0.02,0.132-0.057,0.261-0.07,0.399
		c0.037-0.05,0.07-0.104,0.11-0.15c0.119-0.139,0.232-0.282,0.362-0.408c0.103-0.101,0.234-0.156,0.385-0.154
		c0.2,0.003,0.329,0.113,0.329,0.312c0,0.145-0.028,0.288-0.044,0.445c0.04-0.05,0.074-0.096,0.111-0.139
		c0.13-0.151,0.257-0.307,0.395-0.451c0.064-0.066,0.147-0.118,0.228-0.165c0.143-0.08,0.293-0.094,0.435,0.001
		c0.142,0.096,0.19,0.245,0.167,0.403c-0.022,0.155-0.066,0.311-0.121,0.459c-0.091,0.249-0.199,0.491-0.297,0.737
		c-0.028,0.07-0.051,0.146-0.062,0.22c-0.013,0.094,0.051,0.146,0.127,0.097c0.131-0.087,0.252-0.19,0.367-0.299
		c0.03-0.028,0.022-0.099,0.028-0.15c0.061-0.559,0.299-1.024,0.725-1.39c0.16-0.137,0.341-0.229,0.562-0.224
		c0.381,0.009,0.59,0.223,0.578,0.604c-0.011,0.338-0.154,0.607-0.451,0.771c-0.189,0.104-0.396,0.174-0.617,0.27
		c0.006,0.055,0.008,0.13,0.025,0.201c0.027,0.111,0.098,0.174,0.215,0.173c0.104-0.001,0.212-0.015,0.313-0.044
		c0.095-0.027,0.183-0.079,0.271-0.125c0.21-0.106,0.338-0.259,0.375-0.51c0.086-0.57,0.204-1.136,0.304-1.703
		c0.048-0.27,0.124-0.528,0.279-0.757c0.144-0.212,0.325-0.373,0.592-0.407c0.317-0.042,0.496,0.111,0.471,0.427
		c-0.013,0.155-0.061,0.313-0.121,0.457c-0.101,0.239-0.226,0.467-0.336,0.701c-0.048,0.101-0.096,0.203-0.124,0.31
		c-0.121,0.449-0.235,0.9-0.349,1.352c-0.021,0.082-0.021,0.169-0.035,0.285c0.094-0.018,0.16-0.017,0.211-0.044
		c0.151-0.082,0.26-0.178,0.279-0.385c0.047-0.518,0.28-0.957,0.665-1.309c0.188-0.171,0.4-0.286,0.67-0.264
		c0.313,0.024,0.499,0.202,0.517,0.518c0.02,0.344-0.1,0.63-0.393,0.818c-0.142,0.091-0.305,0.149-0.461,0.218
		c-0.058,0.026-0.123,0.037-0.207,0.062c0.007,0.078,0.005,0.16,0.024,0.236c0.024,0.101,0.097,0.159,0.203,0.167
		c0.222,0.016,0.417-0.064,0.599-0.179c0.03-0.019,0.051-0.078,0.05-0.119c-0.006-0.294,0.158-0.459,0.417-0.544
		c0.172-0.057,0.351-0.094,0.538-0.143c-0.004-0.037-0.008-0.075-0.014-0.113c-0.011-0.076-0.025-0.151-0.035-0.227
		c-0.107-0.79,0.554-1.07,1.08-0.972c0.334,0.063,0.439,0.402,0.219,0.679c-0.104-0.016-0.207-0.04-0.312-0.043
		c-0.146-0.004-0.195,0.049-0.176,0.195c0.015,0.109,0.051,0.215,0.078,0.325c0.055,0,0.097,0.01,0.133-0.002
		c0.28-0.088,0.56-0.181,0.839-0.271c0.103-0.033,0.16-0.098,0.204-0.199c0.121-0.28,0.324-0.475,0.637-0.53
		c0.15-0.027,0.295-0.001,0.425,0.078c0.247,0.151,0.261,0.42,0.03,0.591c-0.094,0.069-0.198,0.126-0.318,0.202
		c0.069,0.253,0.186,0.493,0.274,0.76c0.068-0.11,0.079-0.203,0.051-0.307c-0.058-0.21-0.021-0.408,0.092-0.593
		c0.122-0.199,0.272-0.37,0.471-0.496c0.096-0.061,0.199-0.101,0.316-0.09c0.139,0.012,0.197,0.062,0.193,0.199
		c-0.004,0.135-0.03,0.269-0.055,0.401c-0.016,0.085-0.047,0.167-0.05,0.266c0.032-0.043,0.066-0.084,0.098-0.128
		c0.142-0.197,0.296-0.383,0.498-0.521c0.118-0.08,0.244-0.141,0.395-0.132c0.195,0.012,0.342,0.136,0.347,0.331
		c0.003,0.139-0.018,0.284-0.061,0.415c-0.077,0.234-0.181,0.46-0.269,0.691c-0.042,0.109-0.079,0.222-0.107,0.336
		c-0.009,0.037,0.009,0.096,0.035,0.122c0.019,0.019,0.085,0.013,0.113-0.007c0.102-0.068,0.202-0.142,0.291-0.226
		c0.032-0.03,0.035-0.096,0.041-0.146c0.056-0.538,0.279-0.994,0.677-1.36c0.187-0.172,0.4-0.286,0.67-0.264
		c0.313,0.025,0.499,0.201,0.517,0.518c0.021,0.351-0.103,0.644-0.407,0.827c-0.194,0.117-0.413,0.192-0.65,0.301
		c0.004,0.048,0.002,0.13,0.021,0.206c0.025,0.101,0.098,0.159,0.204,0.167c0.222,0.016,0.417-0.064,0.599-0.179
		c0.03-0.019,0.05-0.079,0.05-0.119c-0.006-0.294,0.157-0.46,0.416-0.544c0.173-0.057,0.352-0.094,0.54-0.144
		c-0.009-0.071-0.019-0.145-0.029-0.218c-0.007-0.053-0.017-0.104-0.023-0.157c-0.091-0.738,0.55-1.045,1.101-0.931
		c0.321,0.066,0.417,0.404,0.201,0.674c-0.104-0.016-0.208-0.04-0.312-0.043c-0.147-0.004-0.195,0.049-0.176,0.195
		c0.015,0.109,0.051,0.216,0.078,0.325c0.055,0,0.098,0.01,0.133-0.002c0.286-0.09,0.571-0.184,0.856-0.277
		c0.087-0.029,0.14-0.085,0.179-0.177c0.121-0.287,0.325-0.49,0.645-0.546c0.17-0.029,0.331,0.003,0.469,0.109
		c0.203,0.157,0.203,0.394-0.001,0.549c-0.098,0.074-0.206,0.135-0.328,0.213c0.016,0.054,0.03,0.115,0.051,0.173
		c0.063,0.172,0.14,0.339,0.187,0.515c0.041,0.151,0.068,0.313,0.064,0.468c-0.009,0.372-0.197,0.638-0.54,0.778
		c-0.293,0.119-0.597,0.142-0.895,0.014c-0.39-0.168-0.519-0.652-0.27-0.995c0.104-0.143,0.242-0.224,0.423-0.213
		c0.099,0.007,0.118,0.03,0.117,0.133c0,0.094-0.009,0.189-0.001,0.282c0.009,0.104,0.055,0.193,0.157,0.239
		c0.106,0.047,0.189-0.003,0.195-0.119c0.002-0.046,0-0.096-0.014-0.14c-0.089-0.292-0.183-0.583-0.276-0.878
		c-0.344,0.1-0.674,0.195-1.015,0.295c0.025,0.112,0.053,0.226,0.077,0.34c0.143,0.68-0.317,1.213-1.013,1.171
		c-0.362-0.022-0.658-0.167-0.865-0.493c-0.049,0.029-0.093,0.056-0.136,0.082c-0.241,0.152-0.493,0.279-0.783,0.305
		c-0.198,0.017-0.396-0.003-0.556-0.127c-0.108-0.083-0.189-0.202-0.292-0.316c-0.023,0.017-0.058,0.046-0.095,0.069
		c-0.173,0.112-0.343,0.228-0.521,0.331c-0.114,0.067-0.246,0.077-0.377,0.064c-0.201-0.021-0.317-0.123-0.331-0.324
		c-0.01-0.139-0.003-0.285,0.03-0.419c0.057-0.222,0.143-0.437,0.209-0.655c0.019-0.062,0.084-0.148,0.001-0.189
		c-0.046-0.022-0.138,0.012-0.189,0.048c-0.192,0.135-0.342,0.301-0.361,0.556c-0.019,0.246-0.055,0.491-0.078,0.737
		c-0.015,0.146-0.046,0.187-0.191,0.194c-0.191,0.011-0.344-0.067-0.457-0.22c-0.041-0.057-0.073-0.12-0.129-0.214
		c-0.014,0.031-0.022,0.054-0.034,0.074c-0.251,0.45-0.901,0.545-1.282,0.401c-0.419-0.158-0.572-0.665-0.307-1.021
		c0.101-0.136,0.233-0.214,0.407-0.207c0.111,0.004,0.13,0.026,0.128,0.14c-0.001,0.088-0.008,0.177-0.002,0.265
		c0.008,0.104,0.048,0.194,0.148,0.245c0.112,0.057,0.204,0.006,0.203-0.12c0-0.075-0.014-0.153-0.036-0.226
		c-0.082-0.263-0.169-0.524-0.257-0.794c-0.18,0.059-0.346,0.116-0.514,0.166c-0.163,0.047-0.328,0.085-0.498,0.129
		c0.028,0.124,0.057,0.238,0.081,0.354c0.141,0.678-0.326,1.211-1.021,1.164c-0.341-0.022-0.627-0.15-0.824-0.442
		c-0.01-0.014-0.021-0.027-0.037-0.05c-0.057,0.034-0.105,0.064-0.154,0.095c-0.217,0.135-0.441,0.251-0.698,0.282
		c-0.37,0.045-0.681-0.039-0.862-0.399c-0.005-0.009-0.019-0.013-0.026-0.018c-0.157,0.104-0.31,0.213-0.47,0.309
		c-0.148,0.088-0.308,0.144-0.485,0.144c-0.221,0-0.409-0.079-0.429-0.364c-0.001-0.016-0.009-0.031-0.017-0.06
		c-0.06,0.037-0.111,0.075-0.168,0.103c-0.18,0.087-0.354,0.191-0.543,0.25c-0.456,0.143-0.757,0.022-1.05-0.394
		c-0.036,0.028-0.07,0.058-0.106,0.083c-0.168,0.119-0.333,0.243-0.506,0.353c-0.115,0.072-0.247,0.105-0.388,0.098
		c-0.238-0.013-0.367-0.115-0.385-0.351c-0.01-0.133,0.007-0.272,0.041-0.401c0.055-0.21,0.134-0.413,0.204-0.62
		c0.022-0.066,0.052-0.132,0.066-0.201c0.008-0.04,0.005-0.093-0.017-0.124c-0.011-0.017-0.083-0.011-0.111,0.009
		c-0.208,0.147-0.408,0.302-0.442,0.584c-0.035,0.292-0.076,0.584-0.113,0.876c-0.014,0.113-0.044,0.149-0.161,0.173
		c-0.357,0.072-0.638-0.152-0.605-0.513c0.021-0.227,0.092-0.448,0.148-0.67c0.026-0.103,0.073-0.199,0.103-0.301
		c0.017-0.059,0.019-0.121,0.026-0.177c-0.101-0.044-0.155,0.009-0.207,0.054c-0.172,0.151-0.303,0.322-0.324,0.565
		c-0.023,0.27-0.066,0.537-0.099,0.806c-0.017,0.13-0.045,0.162-0.175,0.171c-0.222,0.015-0.388-0.084-0.5-0.271
		c-0.048-0.08-0.076-0.171-0.112-0.254c-0.164,0-0.33,0-0.435,0c-0.126,0.1-0.232,0.177-0.33,0.262
		c-0.218,0.19-0.466,0.293-0.759,0.278c-0.227-0.012-0.407-0.104-0.537-0.292c-0.023-0.033-0.044-0.069-0.074-0.115
		c-0.038,0.029-0.072,0.057-0.108,0.082c-0.198,0.136-0.391,0.283-0.599,0.402c-0.114,0.065-0.253,0.099-0.385,0.116
		c-0.289,0.038-0.462-0.109-0.451-0.4c0.01-0.263,0.058-0.525,0.091-0.788c0.011-0.086,0.028-0.171,0.046-0.272
		c-0.184,0.03-0.35,0.06-0.517,0.083c-0.068,0.01-0.099,0.047-0.127,0.104c-0.083,0.169-0.167,0.338-0.264,0.5
		c-0.158,0.265-0.354,0.5-0.601,0.688c-0.275,0.209-0.582,0.326-0.934,0.317c-0.691-0.019-1.161-0.686-0.985-1.354
		c0.051-0.193,0.178-0.328,0.353-0.42c0.196-0.104,0.408-0.153,0.625-0.175c0.316-0.03,0.634-0.05,0.951-0.074
		C25.517,64.742,25.587,64.735,25.682,64.728z M29.735,64.116c-0.057,0.031-0.083,0.042-0.106,0.06
		c-0.042,0.032-0.084,0.064-0.12,0.104c-0.253,0.273-0.396,0.595-0.412,0.969c-0.003,0.088-0.001,0.179,0.02,0.263
		c0.032,0.132,0.136,0.186,0.255,0.15c0.152-0.047,0.324-0.304,0.294-0.46C29.599,64.848,29.612,64.5,29.735,64.116z M25.514,65.301
		c-0.34,0.03-0.649,0.059-0.958,0.087c-0.023,0.003-0.045,0.012-0.067,0.021c-0.111,0.046-0.144,0.101-0.131,0.218
		c0.036,0.325,0.465,0.526,0.728,0.337C25.303,65.806,25.407,65.571,25.514,65.301z M48.118,65.135
		c-0.094,0.018-0.17,0.025-0.241,0.047c-0.101,0.03-0.171,0.174-0.132,0.271c0.054,0.135,0.143,0.246,0.273,0.312
		c0.047,0.022,0.125,0.033,0.162,0.009c0.036-0.022,0.06-0.103,0.051-0.15C48.204,65.461,48.159,65.304,48.118,65.135z
		 M40.02,65.136c-0.091,0.017-0.154,0.023-0.217,0.04c-0.133,0.035-0.203,0.178-0.146,0.303c0.056,0.12,0.139,0.219,0.256,0.283
		c0.057,0.031,0.129,0.065,0.179,0.009c0.033-0.037,0.05-0.109,0.041-0.159C40.106,65.456,40.062,65.305,40.02,65.136z
		 M34.927,64.833c0.29-0.055,0.431-0.229,0.385-0.452c-0.012-0.058-0.025-0.13-0.098-0.128c-0.044,0.002-0.101,0.035-0.128,0.072
		C34.979,64.471,34.933,64.638,34.927,64.833z M38.085,64.83c0.282-0.046,0.424-0.214,0.381-0.445
		c-0.009-0.049-0.052-0.109-0.095-0.128c-0.028-0.013-0.1,0.028-0.127,0.064C38.138,64.467,38.089,64.634,38.085,64.83z
		 M46.181,64.826c0.28-0.035,0.436-0.222,0.382-0.454c-0.011-0.045-0.05-0.105-0.088-0.114c-0.037-0.01-0.103,0.024-0.13,0.06
		C46.231,64.466,46.188,64.639,46.181,64.826z"/>
	<path class="st0" d="M32.142,48.449c-0.03,0.253-0.064,0.486-0.083,0.721c-0.035,0.429-0.066,0.857-0.089,1.286
		c-0.006,0.109,0.013,0.224,0.04,0.331c0.038,0.151,0.132,0.225,0.286,0.201c0.137-0.021,0.275-0.065,0.399-0.127
		c0.255-0.128,0.461-0.325,0.655-0.533c0.314-0.338,0.573-0.718,0.804-1.116c0.09-0.154,0.134-0.171,0.298-0.116
		c0.197,0.064,0.304,0.207,0.28,0.414c-0.016,0.139-0.052,0.278-0.104,0.408c-0.263,0.647-0.673,1.199-1.155,1.699
		c-0.246,0.255-0.519,0.479-0.823,0.664c-0.371,0.225-0.772,0.313-1.202,0.266c-0.375-0.042-0.687-0.2-0.908-0.515
		c-0.02-0.028-0.041-0.057-0.075-0.104c-0.051,0.048-0.097,0.09-0.142,0.132c-0.334,0.32-0.7,0.596-1.124,0.788
		c-0.366,0.165-0.747,0.246-1.151,0.204c-0.492-0.052-0.869-0.289-1.121-0.708c-0.12-0.199-0.204-0.421-0.313-0.652
		c-0.038,0.043-0.078,0.089-0.116,0.135c-0.352,0.426-0.75,0.797-1.228,1.08c-0.438,0.26-0.905,0.391-1.417,0.353
		c-0.518-0.037-0.904-0.275-1.149-0.734c-0.161-0.302-0.245-0.628-0.273-0.963c-0.109-1.278,0.287-2.381,1.185-3.297
		c0.242-0.246,0.528-0.441,0.877-0.499c0.183-0.031,0.379-0.04,0.561-0.011c0.476,0.076,0.774,0.432,0.834,0.943
		c0.067,0.576-0.104,1.069-0.498,1.489c-0.294,0.314-0.649,0.543-1.03,0.737c-0.1,0.05-0.2,0.099-0.313,0.153
		c0.003,0.2,0.043,0.393,0.149,0.567c0.079,0.13,0.202,0.191,0.355,0.197c0.242,0.01,0.465-0.061,0.678-0.166
		c0.268-0.133,0.5-0.315,0.695-0.537c0.178-0.203,0.337-0.424,0.505-0.636c0.061-0.077,0.08-0.165,0.091-0.262
		c0.098-0.896,0.423-1.698,1-2.393c0.186-0.224,0.402-0.414,0.65-0.566c0.354-0.217,0.739-0.271,1.14-0.206
		c0.375,0.061,0.648,0.267,0.792,0.628c0.015,0.037,0.032,0.073,0.056,0.128c0.154-0.16,0.324-0.27,0.536-0.294
		c0-0.105,0-0.193,0-0.28c0-0.383-0.039-0.767,0.036-1.146c0.071-0.358,0.209-0.688,0.46-0.959c0.318-0.346,0.715-0.484,1.18-0.429
		c0.236,0.028,0.384,0.161,0.454,0.388c0.067,0.22,0.075,0.443,0.007,0.661c-0.122,0.394-0.256,0.783-0.387,1.174
		c-0.035,0.105-0.074,0.21-0.123,0.347c0.213-0.036,0.403-0.065,0.591-0.1c0.104-0.019,0.211-0.034,0.31-0.069
		c0.091-0.033,0.148-0.002,0.201,0.061c0.199,0.234,0.223,0.503,0.125,0.78c-0.092,0.26-0.274,0.425-0.559,0.448
		c-0.211,0.017-0.423,0.023-0.635,0.033C32.29,48.451,32.226,48.449,32.142,48.449z M28.16,50.619
		c0.033,0.308,0.091,0.514,0.186,0.675c0.138,0.233,0.326,0.322,0.592,0.28c0.507-0.081,0.898-0.363,1.245-0.719
		c0.033-0.033,0.049-0.093,0.052-0.142c0.03-0.559,0.11-1.111,0.203-1.662c0.026-0.154,0.049-0.309,0.075-0.475
		c-0.11-0.009-0.202-0.016-0.282-0.022c-0.016,0.02-0.021,0.023-0.023,0.028c-0.005,0.017-0.009,0.034-0.012,0.052
		c-0.084,0.503-0.338,0.908-0.716,1.243c-0.285,0.252-0.609,0.439-0.957,0.59C28.407,50.519,28.287,50.566,28.16,50.619z
		 M28.125,49.718c0.038,0.003,0.056,0.009,0.071,0.004c0.412-0.106,0.735-0.503,0.741-0.924c0.001-0.107-0.02-0.226-0.065-0.322
		c-0.086-0.184-0.282-0.208-0.417-0.058c-0.065,0.072-0.117,0.162-0.157,0.252c-0.093,0.211-0.135,0.437-0.152,0.666
		C28.137,49.462,28.131,49.588,28.125,49.718z M24.013,50.207c0.243-0.093,0.452-0.193,0.603-0.385
		c0.136-0.172,0.152-0.514,0.041-0.703c-0.087-0.146-0.232-0.169-0.35-0.041c-0.062,0.067-0.113,0.15-0.15,0.235
		C24.037,49.587,24.006,49.878,24.013,50.207z"/>
	<path class="st0" d="M15.09,47.975c-0.223-0.124-0.44-0.253-0.665-0.368c-0.21-0.108-0.434-0.185-0.673-0.198
		c-0.064-0.004-0.13-0.005-0.194,0c-0.255,0.023-0.417,0.188-0.443,0.444c-0.019,0.188,0.009,0.37,0.099,0.531
		c0.123,0.221,0.25,0.442,0.403,0.642c0.226,0.294,0.481,0.565,0.717,0.852c0.262,0.318,0.527,0.635,0.771,0.967
		c0.792,1.071,0.645,2.286-0.024,3.225c-0.586,0.822-1.401,1.253-2.4,1.348c-0.463,0.045-0.92,0.02-1.361-0.136
		c-0.917-0.322-1.408-0.988-1.518-1.94c-0.05-0.427,0.005-0.847,0.187-1.243c0.092-0.201,0.214-0.38,0.391-0.517
		c0.206-0.159,0.438-0.226,0.696-0.196c0.217,0.024,0.286,0.094,0.307,0.31c0.041,0.406,0.127,0.803,0.297,1.176
		c0.121,0.266,0.282,0.504,0.509,0.692c0.282,0.233,0.606,0.331,0.97,0.295c0.33-0.032,0.6-0.31,0.669-0.683
		c0.066-0.357,0.015-0.697-0.19-0.998c-0.163-0.237-0.343-0.464-0.534-0.68c-0.233-0.266-0.485-0.515-0.728-0.771
		c-0.41-0.435-0.747-0.914-0.895-1.502c-0.276-1.101-0.042-2.078,0.786-2.865c0.64-0.608,1.423-0.762,2.266-0.521
		c0.611,0.174,0.979,0.728,0.953,1.353C15.474,47.488,15.303,47.876,15.09,47.975z"/>
	<path class="st0" d="M18.779,53.238c-0.048,0.062-0.084,0.115-0.128,0.161c-0.314,0.321-0.672,0.574-1.115,0.684
		c-0.23,0.058-0.464,0.073-0.701,0.034c-0.446-0.073-0.75-0.323-0.919-0.736c-0.146-0.355-0.178-0.73-0.162-1.11
		c0.028-0.631,0.246-1.207,0.523-1.765c0.047-0.094,0.095-0.188,0.146-0.288c-0.257-0.207-0.342-0.479-0.328-0.789
		c0.009-0.191,0.071-0.372,0.174-0.531c0.397-0.615,0.962-0.939,1.697-0.942c0.408-0.001,0.662,0.246,0.701,0.647
		c0.008,0.085-0.006,0.157-0.058,0.231c-0.532,0.773-0.876,1.625-1.051,2.545c-0.052,0.272-0.079,0.549-0.021,0.825
		c0.011,0.052,0.023,0.104,0.043,0.152c0.064,0.152,0.153,0.208,0.318,0.192c0.155-0.014,0.296-0.071,0.426-0.157
		c0.078-0.051,0.103-0.109,0.085-0.208c-0.064-0.354-0.082-0.714-0.053-1.073c0.044-0.545,0.172-1.069,0.421-1.56
		c0.099-0.195,0.226-0.37,0.378-0.53c0.311-0.326,1.044-0.295,1.232,0.311c0.101,0.325,0.084,0.652,0.036,0.98
		c-0.086,0.583-0.28,1.13-0.573,1.642c-0.082,0.142-0.019,0.37,0.128,0.482c0.123,0.095,0.291,0.084,0.413-0.055
		c0.092-0.104,0.168-0.228,0.224-0.354c0.146-0.332,0.212-0.688,0.241-1.046c0.031-0.387,0.058-0.777,0.041-1.164
		c-0.016-0.356-0.078-0.714-0.15-1.064c-0.04-0.195,0.034-0.304,0.174-0.399c0.325-0.223,0.824-0.168,1.105,0.122
		c0.173,0.179,0.285,0.396,0.318,0.639c0.04,0.291,0.069,0.587,0.062,0.879c-0.018,0.713-0.165,1.402-0.453,2.058
		c-0.204,0.462-0.467,0.886-0.833,1.239c-0.325,0.313-0.699,0.533-1.15,0.615c-0.451,0.082-0.797-0.07-1.052-0.444
		c-0.023-0.034-0.044-0.069-0.066-0.104C18.835,53.326,18.817,53.297,18.779,53.238z"/>
	<path class="st0" d="M14.573,63.467c-0.096,0.314-0.187,0.612-0.283,0.926c0.221,0.011,0.419-0.043,0.619-0.084
		c0.052-0.011,0.102-0.029,0.152-0.044c0.127-0.036,0.16-0.024,0.235,0.086c0.145,0.211,0.105,0.55-0.108,0.721
		c-0.112,0.09-0.25,0.164-0.388,0.199c-0.215,0.055-0.44,0.07-0.662,0.102c-0.046,0.007-0.092,0.009-0.158,0.014
		c-0.074,0.32-0.155,0.639-0.218,0.961c-0.041,0.207-0.056,0.42-0.079,0.63c-0.013,0.123-0.052,0.176-0.172,0.213
		c-0.192,0.061-0.427-0.016-0.571-0.188c-0.118-0.142-0.181-0.311-0.165-0.491c0.027-0.304,0.075-0.606,0.114-0.909
		c0.005-0.041,0.011-0.081,0.02-0.145c-0.307,0.017-0.603,0.033-0.916,0.05c-0.073,0.316-0.148,0.625-0.214,0.935
		c-0.031,0.144-0.051,0.29-0.063,0.437c-0.007,0.086-0.05,0.126-0.12,0.154c-0.227,0.095-0.496-0.001-0.624-0.226
		c-0.087-0.154-0.112-0.323-0.092-0.495c0.024-0.204,0.065-0.407,0.099-0.609c0.008-0.052,0.017-0.103,0.029-0.172
		c-0.215,0-0.415,0-0.614,0c-0.171-0.001-0.23-0.056-0.247-0.225c-0.021-0.224,0.069-0.398,0.279-0.481
		c0.135-0.054,0.282-0.08,0.425-0.108c0.115-0.022,0.233-0.028,0.361-0.043c0.072-0.348,0.144-0.691,0.217-1.048
		c-0.161,0-0.306-0.002-0.452,0.001c-0.071,0.001-0.141,0.011-0.211,0.015c-0.175,0.009-0.234-0.038-0.255-0.212
		c-0.02-0.174,0.052-0.317,0.195-0.408c0.118-0.074,0.25-0.134,0.383-0.173c0.163-0.048,0.333-0.067,0.51-0.101
		c0.009-0.026,0.025-0.058,0.03-0.092c0.095-0.58,0.192-1.161,0.278-1.743c0.016-0.109,0.063-0.15,0.16-0.175
		c0.321-0.081,0.621,0.046,0.775,0.342c0.118,0.227,0.151,0.471,0.118,0.721c-0.03,0.222-0.073,0.441-0.11,0.662
		c-0.009,0.056-0.015,0.112-0.025,0.188c0.242-0.021,0.462-0.042,0.694-0.063c0.131-0.603,0.226-1.204,0.241-1.812
		c0.29-0.191,0.728-0.183,0.987,0.022c0.254,0.201,0.309,0.479,0.264,0.78c-0.033,0.221-0.091,0.438-0.138,0.656
		c-0.011,0.05-0.021,0.102-0.036,0.176c0.078-0.014,0.14-0.019,0.199-0.036c0.192-0.056,0.383-0.113,0.573-0.177
		c0.145-0.048,0.191-0.041,0.295,0.069c0.194,0.207,0.186,0.578-0.035,0.784c-0.101,0.094-0.227,0.178-0.356,0.22
		c-0.233,0.075-0.478,0.118-0.719,0.17C14.729,63.455,14.658,63.457,14.573,63.467z M13.124,64.538
		c0.086-0.341,0.171-0.673,0.261-1.026c-0.295,0.013-0.563,0.023-0.842,0.034c-0.095,0.346-0.186,0.682-0.285,1.043
		C12.564,64.571,12.837,64.555,13.124,64.538z"/>
	<path class="st0" d="M21.025,65.878c-0.052,0.041-0.096,0.08-0.144,0.112c-0.141,0.097-0.28,0.195-0.426,0.283
		c-0.069,0.042-0.149,0.071-0.229,0.091c-0.364,0.089-0.585-0.081-0.568-0.451c0.008-0.162,0.05-0.325,0.092-0.483
		c0.041-0.152,0.105-0.3,0.155-0.45c0.019-0.059,0.026-0.121,0.038-0.176c-0.091-0.063-0.155-0.021-0.21,0.02
		c-0.187,0.139-0.353,0.288-0.372,0.549c-0.018,0.252-0.059,0.502-0.085,0.754c-0.016,0.153-0.051,0.195-0.206,0.198
		c-0.207,0.004-0.36-0.093-0.471-0.263c-0.032-0.049-0.057-0.102-0.091-0.164c-0.06,0.049-0.113,0.093-0.167,0.137
		c-0.369,0.297-0.776,0.51-1.253,0.571c-0.232,0.029-0.46,0.012-0.681-0.06c-0.56-0.179-0.821-0.742-0.604-1.289
		c0.11-0.278,0.304-0.487,0.547-0.654c0.081-0.056,0.167-0.106,0.236-0.15c-0.074-0.176-0.156-0.338-0.211-0.509
		c-0.064-0.199-0.049-0.406-0.001-0.61c0.143-0.612,0.678-1.106,1.284-1.186c0.179-0.023,0.354-0.003,0.521,0.06
		c0.171,0.063,0.29,0.187,0.334,0.362c0.066,0.267,0.045,0.528-0.098,0.769c-0.102,0.171-0.255,0.277-0.452,0.309
		c-0.099,0.016-0.202,0.021-0.274-0.085c0.023-0.075,0.057-0.151,0.07-0.23c0.018-0.109,0.026-0.222,0.026-0.332
		c0-0.079-0.029-0.156-0.11-0.187c-0.088-0.033-0.162,0.009-0.223,0.07c-0.041,0.042-0.077,0.089-0.108,0.139
		c-0.209,0.327-0.21,0.888-0.049,1.198c0.118-0.011,0.24-0.028,0.362-0.033c0.293-0.013,0.399,0.052,0.265,0.396
		c-0.035,0.09-0.102,0.174-0.171,0.243c-0.147,0.148-0.326,0.179-0.519,0.092c-0.059-0.026-0.114-0.06-0.187-0.099
		c-0.18,0.2-0.286,0.426-0.243,0.702c0.026,0.172,0.153,0.29,0.33,0.324c0.172,0.034,0.341,0.011,0.505-0.044
		c0.324-0.108,0.605-0.289,0.852-0.522c0.101-0.096,0.152-0.236,0.115-0.369c-0.099-0.349,0.027-0.625,0.248-0.875
		c0.081-0.092,0.176-0.173,0.274-0.247c0.06-0.046,0.132-0.084,0.205-0.1c0.284-0.06,0.361,0.043,0.338,0.267
		c-0.01,0.094-0.024,0.187-0.044,0.278c-0.019,0.092-0.047,0.181-0.045,0.289c0.031-0.042,0.059-0.087,0.094-0.125
		c0.151-0.164,0.298-0.333,0.461-0.484c0.103-0.096,0.235-0.155,0.385-0.155c0.232-0.001,0.376,0.135,0.387,0.366
		c0.01,0.199-0.055,0.383-0.125,0.564c-0.092,0.236-0.189,0.47-0.279,0.706c-0.031,0.081-0.065,0.166-0.008,0.277
		c0.055-0.016,0.121-0.02,0.169-0.051c0.093-0.062,0.182-0.132,0.259-0.212c0.036-0.037,0.05-0.103,0.059-0.157
		c0.074-0.489,0.285-0.906,0.648-1.244c0.122-0.114,0.26-0.204,0.427-0.236c0.154-0.029,0.276,0.033,0.314,0.159
		c0.021,0.072,0.017,0.131-0.051,0.188c-0.39,0.326-0.53,0.764-0.541,1.255c-0.001,0.035,0,0.071,0.007,0.105
		c0.029,0.141,0.158,0.19,0.265,0.093c0.067-0.063,0.121-0.145,0.165-0.227c0.131-0.246,0.201-0.514,0.255-0.786
		c0.061-0.308,0.086-0.618,0.064-0.931c-0.033-0.482-0.304-0.781-0.779-0.867c-0.146-0.025-0.192-0.078-0.182-0.226
		c0.016-0.225,0.148-0.366,0.35-0.445c0.367-0.143,0.883-0.086,1.183,0.336c0.162,0.228,0.246,0.485,0.263,0.759
		c0.048,0.779-0.082,1.525-0.453,2.221c-0.137,0.257-0.31,0.487-0.535,0.674c-0.214,0.178-0.451,0.301-0.741,0.274
		c-0.255-0.023-0.443-0.145-0.559-0.376C21.063,65.947,21.046,65.917,21.025,65.878z"/>
	<path class="st0" d="M59.917,66.053c-0.141,0.084-0.263,0.168-0.394,0.232c-0.167,0.082-0.346,0.107-0.533,0.07
		c-0.242-0.049-0.402-0.184-0.47-0.424c-0.011-0.039-0.025-0.077-0.036-0.109c-0.146-0.008-0.286-0.015-0.447-0.023
		c-0.062,0.066-0.138,0.155-0.222,0.236c-0.218,0.209-0.474,0.321-0.781,0.309c-0.301-0.013-0.528-0.174-0.628-0.458
		c-0.074-0.211-0.069-0.428-0.04-0.646c0.058-0.425,0.209-0.809,0.484-1.139c0.148-0.179,0.324-0.324,0.556-0.389
		c0.245-0.068,0.388-0.02,0.53,0.184c0.281-0.077,0.431,0.005,0.501,0.298c0.059,0.24,0.029,0.48-0.038,0.716
		c-0.031,0.106-0.065,0.212-0.098,0.317c0.136,0.079,0.198,0.069,0.245-0.032c0.117-0.255,0.236-0.51,0.36-0.778
		c-0.162-0.26-0.148-0.535,0.217-0.816c0.178-0.137,0.387-0.2,0.611-0.191c0.201,0.009,0.314,0.097,0.361,0.255
		c0.029,0.101,0.004,0.177-0.064,0.257c-0.273,0.323-0.476,0.688-0.597,1.094c-0.04,0.133-0.061,0.275-0.064,0.415
		c-0.006,0.186,0.077,0.243,0.259,0.199c0.056-0.014,0.106-0.045,0.145-0.063c0.021-0.222,0.027-0.429,0.063-0.631
		c0.053-0.299,0.17-0.576,0.366-0.813c0.083-0.101,0.178-0.188,0.322-0.192c0.263-0.008,0.422,0.19,0.391,0.49
		c-0.036,0.341-0.162,0.648-0.346,0.935c-0.022,0.035-0.05,0.067-0.07,0.103c-0.048,0.083-0.024,0.195,0.051,0.252
		c0.064,0.05,0.147,0.043,0.219-0.039c0.061-0.069,0.117-0.15,0.15-0.235c0.172-0.439,0.252-0.895,0.205-1.366
		c-0.025-0.258,0.109-0.382,0.366-0.328c0.196,0.041,0.322,0.181,0.362,0.407c0.04,0.225,0.007,0.446-0.037,0.666
		c-0.088,0.429-0.26,0.818-0.551,1.149c-0.174,0.198-0.38,0.35-0.641,0.418c-0.304,0.08-0.549-0.001-0.678-0.286
		C59.94,66.081,59.927,66.068,59.917,66.053z M57.783,64.121c-0.054,0.033-0.085,0.049-0.111,0.07
		c-0.037,0.029-0.074,0.06-0.105,0.094c-0.265,0.29-0.401,0.634-0.411,1.024c-0.002,0.081,0.015,0.166,0.042,0.241
		c0.04,0.107,0.139,0.144,0.247,0.107c0.16-0.055,0.312-0.313,0.281-0.479c-0.039-0.222-0.063-0.443-0.019-0.667
		C57.731,64.393,57.753,64.272,57.783,64.121z"/>
	<path class="st0" d="M54.385,64.145c-0.184,0.413-0.34,0.802-0.527,1.174c-0.147,0.293-0.323,0.575-0.51,0.845
		c-0.102,0.147-0.243,0.273-0.385,0.385c-0.257,0.203-0.558,0.243-0.871,0.17c-0.243-0.057-0.411-0.206-0.467-0.454
		c-0.08-0.351-0.057-0.692,0.134-1.007c0.122-0.202,0.297-0.334,0.545-0.338c0.052,0,0.107,0.006,0.156,0.022
		c0.138,0.047,0.162,0.115,0.119,0.254c-0.046,0.146-0.085,0.294-0.114,0.443c-0.014,0.066-0.006,0.142,0.008,0.209
		c0.025,0.131,0.119,0.175,0.234,0.104c0.068-0.042,0.135-0.1,0.181-0.165c0.108-0.153,0.221-0.308,0.303-0.476
		c0.267-0.551,0.521-1.108,0.781-1.662c0.036-0.076,0.025-0.145,0.004-0.221c-0.072-0.252-0.115-0.506-0.046-0.766
		c0.115-0.431,0.52-0.705,0.948-0.645c0.28,0.039,0.392,0.213,0.284,0.476c-0.07,0.174-0.164,0.339-0.258,0.501
		c-0.05,0.085-0.064,0.153-0.012,0.243c0.229,0.39,0.454,0.783,0.691,1.195c0.019-0.05,0.035-0.084,0.043-0.118
		c0.107-0.459,0.205-0.92,0.324-1.374c0.052-0.197,0.134-0.391,0.23-0.571c0.177-0.334,0.523-0.35,0.744-0.268
		c0.237,0.089,0.354,0.372,0.249,0.599c-0.031,0.067-0.072,0.119-0.155,0.126c-0.241,0.019-0.387,0.169-0.466,0.379
		c-0.114,0.303-0.217,0.609-0.312,0.918c-0.087,0.281-0.16,0.566-0.229,0.853c-0.022,0.095-0.021,0.196-0.019,0.295
		c0.005,0.176,0.031,0.353,0.027,0.528c-0.013,0.476-0.423,0.77-0.883,0.642c-0.173-0.048-0.252-0.147-0.22-0.325
		c0.03-0.166,0.087-0.329,0.141-0.49c0.025-0.077,0.034-0.146-0.005-0.219c-0.213-0.4-0.425-0.801-0.637-1.202
		C54.411,64.189,54.402,64.174,54.385,64.145z"/>
	<path class="st1" d="M34.385,32.407c-0.043,0.194-0.098,0.387-0.126,0.583c-0.042,0.285-0.079,0.572-0.092,0.859
		c-0.05,1.035,0.092,2.042,0.441,3.02c0.022,0.062,0.032,0.141,0.014,0.203c-0.104,0.363-0.238,0.717-0.463,1.023
		c-0.114,0.154-0.247,0.305-0.4,0.419c-0.467,0.351-0.975,0.218-1.228-0.309c-0.156-0.324-0.215-0.673-0.232-1.026
		c-0.063-1.334,0.269-2.566,0.978-3.696c0.246-0.392,0.551-0.734,0.927-1.008c0.05-0.037,0.105-0.066,0.158-0.099
		C34.369,32.386,34.376,32.396,34.385,32.407z"/>
	<path class="st1" d="M18.213,38.829c-0.005,0.057-0.003,0.092-0.012,0.124c-0.176,0.644-0.397,1.269-0.733,1.848
		c-0.161,0.276-0.347,0.532-0.58,0.753c-0.495,0.471-1.065,0.6-1.709,0.371c-0.485-0.172-0.883-0.463-1.174-0.892
		c-0.114-0.168-0.189-0.352-0.229-0.551c-0.061-0.304,0.031-0.544,0.288-0.72c0.222-0.151,0.469-0.246,0.73-0.297
		c0.548-0.108,1.098-0.207,1.646-0.311c0.549-0.103,1.098-0.206,1.646-0.31C18.122,38.84,18.156,38.837,18.213,38.829z"/>
	<path class="st1" d="M55.116,33.086c-0.007-0.038-0.017-0.065-0.017-0.093c0.005-0.549,0.057-1.093,0.249-1.612
		c0.067-0.18,0.164-0.351,0.26-0.518c0.043-0.074,0.11-0.138,0.179-0.192c0.145-0.116,0.309-0.109,0.451,0.01
		c0.106,0.089,0.174,0.205,0.213,0.338c0.082,0.282,0.09,0.569,0.038,0.855c-0.069,0.386-0.289,0.683-0.615,0.886
		c-0.203,0.126-0.433,0.208-0.651,0.307C55.192,33.08,55.156,33.08,55.116,33.086z"/>
	<path class="st1" d="M48.113,46.024c-0.083,0.304-0.101,0.613-0.101,0.925c0,0.439,0.069,0.867,0.218,1.28
		c0.036,0.1,0.045,0.192,0.001,0.288c-0.062,0.134-0.112,0.273-0.189,0.397c-0.062,0.097-0.145,0.188-0.238,0.255
		c-0.232,0.165-0.483,0.102-0.599-0.159c-0.065-0.147-0.112-0.313-0.124-0.474c-0.062-0.799,0.142-1.526,0.623-2.171
		c0.069-0.094,0.157-0.175,0.241-0.257c0.041-0.039,0.092-0.068,0.138-0.103C48.092,46.013,48.103,46.019,48.113,46.024z"/>
	<path class="st1" d="M39.774,49.401c-0.108,0.43-0.249,0.82-0.49,1.168c-0.034,0.049-0.07,0.095-0.109,0.139
		c-0.315,0.354-0.689,0.427-1.112,0.208c-0.23-0.119-0.416-0.287-0.521-0.53c-0.114-0.267-0.053-0.45,0.214-0.559
		c0.188-0.077,0.392-0.122,0.592-0.164c0.438-0.091,0.877-0.171,1.315-0.254C39.691,49.403,39.719,49.405,39.774,49.401z"/>
	<path class="st1" d="M58.844,46.249c-0.003-0.386,0.035-0.76,0.235-1.099c0.051-0.086,0.114-0.176,0.231-0.162
		c0.129,0.015,0.178,0.118,0.213,0.229C59.675,45.704,59.365,46.188,58.844,46.249z"/>
	<path class="st1" d="M29.735,64.116c-0.123,0.384-0.137,0.731-0.069,1.085c0.03,0.156-0.142,0.413-0.294,0.46
		c-0.119,0.035-0.223-0.019-0.255-0.15c-0.021-0.084-0.023-0.175-0.02-0.263c0.016-0.374,0.159-0.695,0.412-0.969
		c0.036-0.039,0.079-0.071,0.12-0.104C29.652,64.158,29.679,64.147,29.735,64.116z"/>
	<path class="st1" d="M25.514,65.301c-0.107,0.271-0.21,0.505-0.428,0.662c-0.262,0.189-0.691-0.012-0.728-0.337
		c-0.013-0.117,0.02-0.172,0.131-0.218c0.022-0.009,0.044-0.018,0.067-0.021C24.865,65.359,25.173,65.331,25.514,65.301z"/>
	<path class="st1" d="M48.118,65.135c0.041,0.169,0.086,0.326,0.113,0.487c0.009,0.048-0.015,0.128-0.051,0.15
		c-0.037,0.024-0.115,0.014-0.162-0.009c-0.131-0.065-0.22-0.177-0.273-0.312c-0.039-0.097,0.031-0.24,0.132-0.271
		C47.948,65.16,48.024,65.152,48.118,65.135z"/>
	<path class="st1" d="M40.02,65.136c0.042,0.169,0.086,0.32,0.113,0.476c0.009,0.05-0.008,0.122-0.041,0.159
		c-0.05,0.057-0.122,0.022-0.179-0.009c-0.117-0.064-0.2-0.163-0.256-0.283c-0.058-0.125,0.013-0.268,0.146-0.303
		C39.866,65.159,39.929,65.152,40.02,65.136z"/>
	<path class="st1" d="M34.927,64.833c0.006-0.195,0.052-0.362,0.159-0.508c0.027-0.037,0.084-0.07,0.128-0.072
		c0.073-0.002,0.086,0.07,0.098,0.128C35.357,64.604,35.217,64.778,34.927,64.833z"/>
	<path class="st1" d="M38.085,64.83c0.004-0.196,0.053-0.363,0.159-0.509c0.027-0.036,0.099-0.077,0.127-0.064
		c0.043,0.019,0.086,0.079,0.095,0.128C38.509,64.616,38.368,64.784,38.085,64.83z"/>
	<path class="st1" d="M46.181,64.826c0.007-0.188,0.05-0.36,0.164-0.509c0.027-0.035,0.093-0.069,0.13-0.06
		c0.038,0.009,0.077,0.069,0.088,0.114C46.617,64.604,46.461,64.791,46.181,64.826z"/>
	<path class="st1" d="M28.16,50.619c0.127-0.053,0.247-0.101,0.364-0.151c0.348-0.15,0.672-0.338,0.957-0.59
		c0.377-0.335,0.632-0.74,0.716-1.243c0.003-0.018,0.007-0.035,0.012-0.052c0.001-0.005,0.007-0.009,0.023-0.028
		c0.08,0.007,0.171,0.014,0.282,0.022c-0.026,0.166-0.049,0.32-0.075,0.475c-0.093,0.551-0.173,1.104-0.203,1.662
		c-0.002,0.049-0.019,0.108-0.052,0.142c-0.347,0.355-0.738,0.638-1.245,0.719c-0.267,0.042-0.455-0.047-0.592-0.28
		C28.251,51.133,28.193,50.927,28.16,50.619z"/>
	<path class="st1" d="M28.125,49.718c0.007-0.13,0.012-0.256,0.021-0.382c0.017-0.229,0.059-0.455,0.152-0.666
		c0.04-0.09,0.091-0.18,0.157-0.252c0.136-0.15,0.331-0.126,0.417,0.058c0.045,0.097,0.066,0.215,0.065,0.322
		c-0.006,0.421-0.33,0.817-0.741,0.924C28.18,49.727,28.163,49.721,28.125,49.718z"/>
	<path class="st1" d="M24.013,50.207c-0.007-0.329,0.023-0.62,0.144-0.894c0.037-0.085,0.088-0.168,0.15-0.235
		c0.118-0.128,0.263-0.105,0.35,0.041c0.112,0.189,0.095,0.531-0.041,0.703C24.465,50.014,24.256,50.114,24.013,50.207z"/>
	<path class="st1" d="M13.124,64.538c-0.286,0.017-0.56,0.033-0.866,0.051c0.099-0.361,0.19-0.697,0.285-1.043
		c0.279-0.011,0.547-0.021,0.842-0.034C13.295,63.865,13.21,64.197,13.124,64.538z"/>
	<path class="st1" d="M57.783,64.121c-0.029,0.151-0.052,0.271-0.076,0.391c-0.044,0.224-0.021,0.445,0.019,0.667
		c0.03,0.167-0.121,0.425-0.281,0.479c-0.108,0.036-0.207,0-0.247-0.107c-0.027-0.075-0.044-0.16-0.042-0.241
		c0.01-0.391,0.146-0.734,0.411-1.024c0.031-0.034,0.068-0.064,0.105-0.094C57.698,64.17,57.729,64.154,57.783,64.121z"/>
</g>
</svg>
